<?xml version="1.0" standalone="no"?>
<!DOCTYPE svg PUBLIC "-//W3C//DTD SVG 20010904//EN"
 "http://www.w3.org/TR/2001/REC-SVG-20010904/DTD/svg10.dtd">
<svg version="1.0" xmlns="http://www.w3.org/2000/svg"
 width="512.000000pt" height="512.000000pt" viewBox="0 0 512.000000 512.000000"
 preserveAspectRatio="xMidYMid meet">
<metadata>
Created by potrace 1.16, written by Peter Selinger 2001-2019
</metadata>
<g transform="translate(0.000000,512.000000) scale(0.100000,-0.100000)"
fill="#000000" stroke="none">
<path d="M2110 4554 c-264 -52 -505 -213 -656 -440 -97 -146 -150 -308 -161
-494 -9 -158 25 -399 72 -517 12 -30 13 -46 5 -67 -23 -61 -4 -159 52 -271 17
-32 46 -100 65 -150 56 -145 102 -189 191 -184 l47 3 37 -72 c20 -40 54 -92
75 -116 41 -48 155 -145 205 -173 l30 -18 -5 -125 c-4 -69 -9 -134 -12 -145
-3 -11 -24 -27 -45 -36 -27 -12 -44 -29 -58 -55 -42 -86 -68 -238 -49 -291 7
-20 2 -23 -60 -43 -37 -11 -138 -34 -223 -51 -249 -48 -321 -67 -388 -101 -84
-42 -173 -136 -202 -214 -48 -129 -80 -350 -78 -539 l1 -140 7 160 c8 157 37
369 65 463 31 102 103 178 212 221 53 21 188 51 443 100 85 16 193 43 240 60
l85 30 30 -36 c16 -20 38 -49 48 -64 l19 -28 -57 -36 c-30 -20 -54 -39 -52
-43 2 -4 45 -74 94 -157 166 -275 390 -691 487 -902 l38 -83 119 0 c76 0 119
4 119 10 0 14 -254 540 -328 680 -31 58 -70 123 -88 145 -18 22 -95 130 -171
240 -77 110 -174 249 -216 309 -84 118 -87 131 -61 214 l17 51 41 -42 c46 -47
129 -104 285 -193 99 -56 351 -238 351 -253 0 -4 -34 -58 -76 -121 -42 -63
-89 -142 -105 -175 l-30 -60 31 35 c17 19 62 87 100 150 101 168 90 159 127
106 18 -25 48 -55 68 -68 33 -22 38 -33 90 -193 112 -353 155 -557 155 -747
l0 -88 30 0 30 0 -6 93 c-10 157 -32 322 -78 584 -62 350 -63 358 -36 429 25
69 42 89 92 115 41 21 148 26 191 10 46 -18 204 -310 262 -485 44 -130 122
-517 132 -650 l7 -101 9 55 c10 66 2 588 -11 645 l-9 40 -6 -35 c-3 -19 -9
-69 -12 -110 -7 -87 -19 -117 -28 -73 -91 423 -147 596 -234 711 l-25 33 29
-7 c93 -22 176 -107 249 -255 20 -41 76 -193 124 -339 128 -393 130 -398 123
-360 -9 52 -86 320 -134 461 -114 342 -240 508 -412 544 -16 3 -50 25 -75 49
-131 119 -345 273 -439 316 -63 28 -68 42 -68 194 l0 99 54 29 c250 135 413
343 496 633 14 50 33 95 41 100 97 60 150 131 179 240 39 152 -4 317 -93 354
-28 12 -29 13 -20 64 9 57 2 164 -12 187 -6 10 -8 -13 -4 -61 11 -129 -14
-221 -31 -118 -10 56 -59 108 -141 150 -115 58 -132 79 -173 216 -17 58 -29
78 -61 106 -22 18 -58 40 -81 47 l-41 14 52 18 c28 9 73 32 98 51 46 32 48 32
87 19 60 -20 97 -49 145 -114 23 -32 44 -58 47 -58 2 0 -10 27 -28 61 -42 78
-89 117 -151 125 l-48 7 25 29 c70 83 -20 261 -174 342 -74 39 -271 107 -381
132 -64 15 -370 28 -420 18z m442 -69 c318 -56 527 -193 528 -345 0 -76 -58
-111 -278 -168 l-150 -38 -23 25 c-46 47 -101 80 -182 108 -67 23 -99 28 -177
28 -83 0 -102 -3 -151 -27 -72 -36 -118 -82 -191 -193 -100 -151 -138 -182
-255 -210 -125 -30 -197 -105 -214 -223 -5 -40 -7 -13 -5 88 2 100 9 162 20
200 27 86 29 100 18 100 -12 0 -35 -57 -56 -138 -21 -78 -21 -268 -1 -345 15
-57 63 -163 70 -155 2 2 -3 24 -11 48 -39 110 -24 229 37 303 35 43 82 69 154
86 28 7 73 27 100 45 49 32 71 58 184 213 116 160 276 209 465 143 59 -20 151
-68 144 -75 -2 -2 -24 3 -48 11 -62 22 -184 29 -252 15 -94 -20 -129 -53 -191
-183 -68 -141 -118 -204 -213 -267 -82 -55 -153 -81 -221 -81 -25 0 -53 -4
-63 -10 -29 -16 -43 -72 -34 -143 l8 -62 7 78 c4 42 12 84 19 92 13 15 49 19
86 9 l20 -5 -19 -57 c-11 -34 -21 -98 -24 -163 l-6 -107 -40 29 c-52 37 -94
45 -142 25 -48 -20 -46 -23 -82 119 -25 101 -28 125 -27 295 0 172 2 191 28
275 105 345 415 620 761 675 80 12 299 5 407 -15z m46 -578 c29 -16 41 -16
115 -6 71 10 91 9 139 -5 68 -19 89 -43 119 -134 36 -112 77 -180 135 -224 29
-21 55 -46 58 -54 3 -9 30 -51 58 -95 67 -101 79 -76 18 35 -23 42 -37 76 -31
76 18 0 91 -50 98 -66 6 -17 -12 -379 -28 -540 -17 -181 -82 -379 -170 -522
-95 -155 -257 -290 -409 -343 -91 -31 -226 -32 -335 -1 -162 46 -363 158 -457
254 -44 45 -128 193 -128 224 0 23 -23 26 -64 9 -44 -18 -86 -13 -111 15 -9
10 -29 51 -44 91 -16 41 -43 105 -62 144 -46 96 -38 175 17 175 31 0 39 -20
25 -61 -13 -38 -5 -52 15 -25 12 17 14 17 20 3 3 -9 -4 -29 -17 -46 -22 -30
-22 -31 -5 -70 16 -34 96 -125 96 -109 0 4 -11 28 -25 54 -29 54 -31 73 -10
100 42 55 -20 184 -88 184 -46 0 -67 -25 -67 -79 l-1 -46 -14 34 c-8 18 -15
58 -15 88 0 47 4 59 29 84 33 32 67 37 109 15 59 -31 91 -84 122 -203 27 -100
50 -163 59 -163 5 0 1 28 -8 63 -12 48 -15 115 -15 292 0 207 2 235 20 285 20
52 24 57 98 97 43 23 97 58 122 78 58 48 124 142 165 235 54 124 77 148 166
170 64 16 263 7 301 -13z m826 -666 c10 -11 24 -40 32 -67 17 -57 17 -90 1
-53 -20 43 -38 59 -69 59 -27 0 -30 3 -24 23 3 12 6 30 6 40 0 23 32 22 54 -2z
m9 -143 c30 -41 27 -112 -8 -176 -27 -51 -71 -100 -80 -91 -2 3 -1 37 2 77 5
60 9 72 24 72 24 0 32 16 31 59 -1 23 -9 42 -22 53 -12 10 -19 22 -15 28 11
18 47 7 68 -22z m-1161 -1173 c178 -59 255 -62 350 -14 21 11 40 19 43 19 3 0
5 -26 5 -58 0 -134 45 -292 102 -357 l40 -45 -27 -73 c-15 -39 -33 -77 -39
-84 -6 -7 -34 -13 -62 -14 -46 -2 -55 1 -115 48 -57 44 -198 139 -386 258 -74
47 -73 41 -43 220 11 66 20 123 20 128 0 10 -3 11 112 -28z m678 -418 c30 -22
99 -77 152 -121 76 -63 94 -82 80 -88 -9 -3 -39 -14 -66 -23 -57 -21 -118 -72
-136 -115 -7 -17 -16 -30 -20 -30 -4 0 -15 45 -25 100 -23 124 -26 128 -59
107 -14 -9 -30 -17 -36 -17 -16 0 -3 54 26 112 13 26 24 53 24 60 0 7 -21 35
-47 62 l-48 49 50 -28 c28 -15 75 -46 105 -68z"/>
<path d="M2223 4346 c-71 -18 -169 -67 -219 -110 -23 -20 -74 -78 -114 -131
-40 -52 -80 -100 -89 -105 -12 -7 -13 -9 -2 -10 8 0 64 51 125 113 92 94 124
120 186 150 108 53 187 70 290 65 103 -6 142 -22 271 -110 53 -36 120 -74 150
-84 65 -22 182 -25 201 -5 11 11 8 12 -19 6 -81 -17 -207 30 -330 122 -112 83
-171 105 -298 109 -62 2 -120 -2 -152 -10z"/>
<path d="M2385 4270 c80 -9 139 -29 205 -67 37 -22 42 -23 27 -6 -9 11 -41 33
-70 49 -45 24 -64 28 -142 30 l-90 3 70 -9z"/>
<path d="M1806 4161 c-58 -47 -106 -117 -151 -220 -35 -81 -46 -99 -76 -113
-18 -10 -26 -18 -17 -18 33 0 79 54 128 149 27 53 75 127 105 164 31 37 54 67
52 67 -3 0 -21 -13 -41 -29z"/>
<path d="M2483 4127 c-19 -10 -13 -12 45 -12 54 0 85 -8 160 -38 92 -37 212
-60 212 -40 0 6 -22 13 -48 16 -26 3 -94 24 -149 46 -106 43 -177 52 -220 28z"/>
<path d="M2707 3459 c-33 -46 -10 -92 56 -110 l41 -11 -27 -20 c-27 -19 -73
-95 -64 -104 2 -3 29 16 58 41 30 25 77 57 105 71 91 45 228 53 312 18 l33
-14 -31 39 c-56 72 -134 96 -341 107 -124 7 -126 7 -142 -17z"/>
<path d="M2155 3435 c-226 -54 -285 -83 -355 -180 -15 -19 -14 -19 10 -4 56
35 127 51 271 59 158 10 216 25 249 68 24 30 25 55 4 76 -20 20 -13 21 -179
-19z"/>
<path d="M2410 3297 c54 -132 62 -291 20 -432 -41 -137 -53 -192 -46 -218 8
-35 22 -34 29 1 3 15 20 45 38 67 53 66 72 120 77 222 8 150 -31 286 -107 373
l-31 35 20 -48z"/>
<path d="M2888 3270 c-65 -19 -116 -82 -133 -165 l-6 -30 16 30 c8 17 24 41
35 55 l20 25 -10 -28 c-5 -16 -10 -38 -10 -50 0 -16 -9 -26 -30 -34 -39 -15
-38 -28 3 -29 17 0 62 -9 99 -19 57 -15 77 -16 123 -7 68 14 97 33 134 87 27
40 27 43 13 71 -23 45 -43 65 -87 85 -42 19 -119 23 -167 9z m153 -63 c18 -12
40 -34 48 -49 13 -23 13 -30 1 -53 -12 -22 -56 -55 -74 -55 -3 0 -4 19 -3 43
2 37 -1 42 -19 42 -47 0 -74 62 -36 84 26 16 46 13 83 -12z"/>
<path d="M2663 3217 c-49 -67 -67 -142 -53 -218 7 -35 20 -79 31 -99 l19 -35
-7 40 c-5 22 -8 81 -8 130 0 80 3 97 32 158 36 77 31 87 -14 24z"/>
<path d="M2027 3228 c-20 -6 -58 -29 -85 -52 -26 -24 -54 -41 -62 -39 -9 3 -8
-2 5 -12 11 -9 30 -14 42 -12 18 3 23 -3 31 -35 5 -21 8 -38 7 -38 -2 0 -16 4
-32 10 -26 9 -26 8 10 -24 68 -60 160 -71 272 -30 39 14 84 28 102 32 l32 7
-42 80 c-36 68 -49 83 -87 103 -48 24 -124 28 -193 10z m215 -84 c46 -38 76
-68 44 -44 -18 14 -19 14 -8 -7 7 -12 19 -26 27 -31 12 -6 0 -13 -42 -26 -32
-10 -64 -21 -72 -24 -11 -4 -11 -1 -2 16 19 36 14 69 -13 76 -46 11 -42 76 4
76 10 0 38 -16 62 -36z m-226 -19 c-9 -13 -16 -39 -16 -57 0 -38 -16 -28 -30
20 -8 30 -7 33 23 46 18 8 34 15 36 15 2 1 -4 -10 -13 -24z"/>
<path d="M3075 2955 c-37 -17 -140 -19 -184 -4 -47 17 -49 3 -2 -20 67 -34
172 -23 210 22 16 20 15 20 -24 2z"/>
<path d="M2235 2896 c-78 -40 -180 -48 -238 -17 -29 15 -35 16 -25 4 22 -28
91 -53 143 -53 60 0 119 26 159 69 17 17 28 30 25 30 -2 -1 -31 -16 -64 -33z"/>
<path d="M2725 2675 c-17 -71 -85 -101 -156 -70 -31 15 -44 16 -64 7 -33 -15
-32 -25 6 -56 56 -47 175 -24 234 46 30 36 31 48 6 79 l-19 24 -7 -30z"/>
<path d="M2405 2418 c-55 -5 -103 -13 -108 -17 -4 -4 14 -22 39 -41 143 -102
299 -107 421 -14 39 29 41 44 11 64 -29 18 -218 23 -363 8z"/>
<path d="M3165 4160 c-27 -7 -25 -8 16 -9 59 -1 138 -41 184 -93 75 -82 101
-190 71 -292 -16 -54 -16 -66 -1 -184 9 -70 14 -149 11 -177 -3 -34 -2 -43 4
-30 14 31 11 176 -4 259 -14 73 -14 78 7 123 30 68 28 151 -5 225 -55 120
-184 201 -283 178z"/>
<path d="M3140 4081 c-12 -8 -7 -11 21 -11 74 0 131 -68 182 -219 24 -69 33
-58 17 21 -15 78 -54 152 -97 185 -36 27 -100 40 -123 24z"/>
<path d="M2966 3915 c83 -26 123 -56 158 -120 l17 -30 -6 35 c-3 19 -13 46
-23 60 -26 36 -99 70 -147 69 l-40 -1 41 -13z"/>
<path d="M3180 3857 c5 -16 10 -62 10 -103 0 -76 13 -92 24 -30 9 47 -2 107
-25 137 l-19 24 10 -28z"/>
<path d="M3105 3680 c17 -62 129 -131 208 -129 27 0 21 4 -36 24 -87 31 -134
60 -159 99 -17 27 -19 28 -13 6z"/>
<path d="M3154 1048 c7 -24 42 -106 78 -183 128 -272 167 -427 177 -695 l7
-175 8 89 c15 157 -21 414 -89 641 -55 179 -103 297 -138 333 -45 46 -59 43
-43 -10z"/>
<path d="M1390 992 c53 -81 170 -220 254 -302 36 -35 66 -72 66 -80 0 -33 -31
-120 -43 -120 -6 0 -37 28 -69 62 l-57 62 34 -115 c19 -63 61 -193 95 -289 33
-96 60 -182 60 -192 0 -10 4 -18 9 -18 5 0 2 28 -5 63 -18 85 -17 134 7 353
30 269 20 511 -22 558 -4 4 -3 -11 3 -35 11 -48 3 -228 -11 -242 -10 -10 -112
88 -265 253 -94 101 -96 103 -56 42z"/>
<path d="M1461 594 c42 -81 118 -204 125 -204 12 0 -137 263 -156 275 -5 3 9
-29 31 -71z"/>
</g>
</svg>