<?xml version="1.0" standalone="no"?>
<!DOCTYPE svg PUBLIC "-//W3C//DTD SVG 20010904//EN"
 "http://www.w3.org/TR/2001/REC-SVG-20010904/DTD/svg10.dtd">
<svg version="1.0" xmlns="http://www.w3.org/2000/svg"
 width="512.000000pt" height="512.000000pt" viewBox="0 0 512.000000 512.000000"
 preserveAspectRatio="xMidYMid meet">
<metadata>
Created by potrace 1.16, written by Peter Selinger 2001-2019
</metadata>
<g transform="translate(0.000000,512.000000) scale(0.100000,-0.100000)"
fill="#000000" stroke="none">
<path d="M2196 4911 c-19 -21 -21 -47 -5 -57 19 -12 4 -247 -22 -340 -26 -96
-32 -111 -61 -147 -20 -25 -23 -40 -23 -115 0 -103 15 -137 77 -179 36 -24 43
-36 54 -83 7 -30 13 -58 14 -62 0 -4 -21 -19 -47 -32 -59 -30 -85 -54 -117
-108 -33 -56 -91 -103 -205 -168 -90 -51 -93 -52 -107 -32 -7 11 -32 27 -55
36 -90 36 -243 -18 -455 -160 -62 -41 -132 -97 -158 -124 l-46 -49 0 -118 c0
-88 -5 -137 -20 -191 -24 -86 -25 -121 -5 -128 16 -6 160 41 184 60 12 9 13 7
7 -9 -37 -98 -95 -368 -116 -535 -6 -52 -15 -106 -19 -120 -7 -26 -10 -26 -76
-14 -27 5 -36 -1 -95 -70 -36 -42 -79 -101 -97 -133 -59 -106 -64 -241 -11
-316 20 -28 21 -33 9 -153 -16 -161 -45 -346 -73 -461 l-22 -92 24 -26 c13
-14 30 -25 38 -25 8 0 12 -6 9 -12 -3 -7 -24 -54 -46 -104 -45 -100 -73 -236
-54 -255 8 -8 8 -20 2 -37 -23 -60 110 -241 206 -281 22 -9 67 -16 100 -16 57
0 60 1 60 24 0 21 -6 25 -35 29 -19 2 -37 6 -40 9 -3 3 10 4 28 1 39 -5 42 4
5 21 -21 10 -28 9 -36 -1 -6 -9 -7 -8 -3 5 3 11 0 20 -10 24 -9 3 -27 30 -41
59 -14 29 -32 56 -42 59 -25 8 -20 101 10 161 27 55 89 95 119 77 24 -15 50
-102 44 -149 -4 -30 0 -55 14 -87 24 -55 40 -66 59 -42 18 25 17 177 -1 238
-7 25 -11 66 -9 90 6 51 -12 92 -57 130 -16 14 -30 35 -30 46 l0 21 20 -20
c46 -46 86 -15 135 105 20 50 75 160 121 246 46 85 84 159 84 164 0 4 20 30
45 56 54 58 111 170 120 238 7 54 -17 162 -41 182 -9 7 -14 32 -14 69 0 32 -5
80 -11 107 l-11 48 82 165 c46 91 100 215 121 275 21 61 38 107 39 104 4 -76
65 -304 89 -333 5 -6 18 -34 29 -62 56 -142 194 -278 227 -224 11 18 32 10 44
-16 10 -22 9 -30 -4 -44 -23 -25 -18 -65 13 -97 26 -28 26 -30 9 -44 -26 -20
-34 -91 -13 -108 9 -7 16 -21 16 -31 0 -10 7 -23 15 -30 13 -11 13 -15 0 -33
-8 -12 -15 -29 -15 -37 0 -9 -14 -20 -32 -25 -22 -7 -40 -24 -59 -55 -14 -25
-24 -49 -23 -55 2 -5 -3 -35 -11 -65 l-14 -55 3 45 3 46 -58 -7 c-93 -11 -167
-78 -196 -179 -18 -59 -19 -60 -54 -60 -65 0 -121 -84 -155 -232 -39 -172 -24
-1008 19 -1008 6 0 7 21 3 56 -25 213 -26 514 -2 774 3 34 2 38 -4 15 l-7 -30
-2 35 c-3 104 46 281 93 336 28 32 35 36 63 30 l31 -7 -5 -62 c-4 -47 -16 -81
-48 -142 -23 -44 -48 -102 -54 -129 -19 -80 -41 -314 -39 -426 1 -98 2 -95 8
50 9 182 34 363 59 430 10 26 31 67 48 91 33 48 73 123 73 136 -1 4 -8 -3 -16
-17 -14 -24 -15 -21 -10 45 9 133 64 227 150 260 57 22 97 15 46 -8 -36 -16
-71 -50 -108 -104 -28 -40 -28 -43 6 -43 48 0 54 -10 46 -83 -6 -57 -12 -72
-39 -100 -30 -31 -72 -97 -61 -97 2 0 18 22 36 50 18 27 35 50 39 50 3 0 49
-22 101 -48 91 -45 97 -50 136 -115 l42 -67 -15 -43 c-20 -57 -11 -134 25
-210 37 -78 73 -117 108 -117 l27 0 -6 -108 c-8 -137 -10 -142 -51 -135 -65
10 -130 -83 -143 -207 l-6 -60 76 0 76 0 12 43 c41 149 74 387 67 467 l-5 48
37 -30 c45 -35 91 -47 185 -48 81 0 102 11 143 73 l27 42 6 -106 c9 -140 74
-458 100 -483 21 -22 18 8 -11 123 -17 67 -38 158 -45 203 -14 78 -14 81 7 97
25 21 28 86 14 291 -14 199 9 245 140 287 81 26 112 54 144 131 l23 53 61 -2
c56 -3 61 -1 67 22 18 64 14 69 -51 69 l-60 0 15 38 c24 57 44 69 112 66 32
-1 57 -5 56 -8 -2 -4 -10 -21 -19 -39 -16 -31 -16 -31 20 8 l36 40 18 -24 c23
-32 51 -101 51 -126 1 -18 -4 -20 -32 -17 -45 5 -84 -29 -127 -110 -56 -106
-96 -168 -103 -161 -10 9 -8 -244 3 -427 6 -101 5 -159 -1 -166 -6 -7 -27 -15
-49 -19 -75 -13 -75 -13 -62 -181 7 -81 15 -150 17 -153 13 -12 14 16 3 147
-6 78 -9 144 -6 147 3 3 21 8 40 11 l35 6 7 -103 c12 -184 17 -209 37 -209 14
0 17 6 14 32 -3 18 -9 87 -16 152 l-11 119 29 23 28 22 0 304 0 303 47 97 c67
136 119 170 174 111 21 -23 23 -28 9 -35 -17 -10 -49 -69 -71 -132 -35 -97
-41 -263 -28 -753 l7 -243 30 0 30 0 -5 228 c-3 125 -4 220 -1 212 3 -8 14
-27 24 -42 17 -23 19 -49 21 -215 1 -163 2 -176 9 -98 4 50 7 132 8 183 1 85
3 92 21 92 19 0 20 -7 22 -147 l2 -148 6 155 6 155 0 -188 c-1 -143 2 -187 12
-187 9 0 12 52 12 228 0 133 4 242 11 262 16 55 22 284 10 400 -13 128 -27
173 -63 212 -15 17 -28 34 -28 38 0 4 -8 18 -18 31 -11 13 -29 58 -41 99 -28
93 -61 140 -100 140 -24 0 -29 5 -40 50 -17 65 -45 100 -80 100 -31 0 -65 31
-76 70 -4 14 -14 32 -21 41 -11 12 -12 23 -4 43 17 45 12 101 -11 130 -19 24
-19 27 -4 33 21 7 65 103 65 138 0 30 1 30 42 5 22 -13 51 -20 85 -20 45 0 54
4 71 28 59 84 171 365 204 516 l24 106 23 -77 c35 -120 118 -323 151 -371 33
-47 40 -104 15 -128 -9 -10 -15 -34 -15 -65 0 -27 -4 -49 -9 -49 -14 0 -59
-99 -66 -146 -9 -58 18 -175 60 -256 20 -40 35 -84 35 -104 0 -20 18 -104 39
-187 21 -84 46 -203 55 -266 19 -130 24 -144 65 -161 50 -20 49 -43 -3 -70
-37 -19 -62 -53 -93 -126 -46 -107 -64 -184 -61 -259 3 -63 5 -70 25 -73 28
-4 56 47 78 149 23 102 31 117 60 125 36 9 85 -37 85 -81 0 -40 24 -73 58 -78
l27 -4 -27 -2 c-29 -1 -49 -28 -62 -83 -3 -15 -17 -38 -31 -52 -14 -14 -25
-32 -25 -40 0 -9 -12 -18 -27 -21 -16 -4 -38 -8 -50 -11 -25 -5 -47 -39 -39
-60 3 -8 16 -14 29 -14 14 0 31 -9 39 -22 l15 -22 52 22 c44 18 53 19 58 7 12
-33 52 -15 142 65 59 54 63 59 81 135 11 43 17 81 15 83 -2 3 5 12 17 21 18
15 20 27 19 110 -1 52 -8 128 -16 170 -8 42 -15 79 -15 82 0 4 14 12 30 19 39
16 46 30 54 112 3 36 22 160 41 273 19 114 35 240 35 280 0 66 2 74 25 89 56
37 91 162 81 291 -8 111 -21 148 -76 230 -56 84 -73 99 -98 91 -23 -8 -30 0
-71 80 -44 86 -60 98 -114 90 l-45 -7 -6 36 c-4 20 -2 50 4 68 10 27 5 68 -25
242 -44 254 -60 364 -52 372 3 3 43 -16 87 -42 75 -44 85 -47 127 -41 45 6 83
29 83 49 0 5 -22 59 -49 121 -28 63 -52 135 -55 166 -13 104 -34 157 -77 194
-44 37 -254 148 -363 191 -104 41 -158 23 -217 -72 l-20 -31 -26 24 c-15 14
-75 49 -134 77 l-106 52 -17 53 c-18 56 -40 76 -96 87 -19 4 -48 18 -65 30
-35 27 -100 50 -168 60 -37 6 -47 11 -43 24 2 9 7 28 10 42 5 23 12 27 51 32
82 9 124 74 125 190 0 79 -17 119 -62 147 -17 10 -37 34 -44 52 -45 118 -46
124 -42 209 2 67 7 92 21 107 10 11 17 31 15 44 -2 18 -9 23 -33 23 -24 0 -31
-5 -33 -24 -2 -13 1 -28 7 -34 12 -12 13 -117 2 -157 -8 -29 -15 -21 -31 39
-7 26 -25 56 -43 74 -18 16 -45 42 -62 58 -38 37 -81 49 -175 49 -93 0 -144
-14 -189 -51 -20 -16 -40 -29 -45 -29 -17 0 -77 -52 -106 -91 -35 -48 -39 -39
-32 76 4 61 9 84 23 98 20 19 23 35 11 53 -14 20 -40 23 -56 5z m39 -22 c0 -7
-8 -15 -17 -17 -18 -3 -25 18 -11 32 10 10 28 1 28 -15z m713 -66 c5 -17 -26
-29 -40 -15 -6 6 -7 15 -3 22 9 14 37 9 43 -7z m-244 -7 c19 -8 37 -19 41 -26
6 -9 3 -9 -13 -1 -69 37 -111 -10 -193 -216 -48 -123 -48 -123 -127 -123 -40
0 -73 5 -80 12 -7 7 -12 32 -12 58 0 124 84 290 153 303 55 11 199 6 231 -7z
m56 -62 c46 -14 51 -17 35 -26 -11 -5 -32 -23 -46 -40 -23 -26 -30 -28 -49
-18 -11 6 -26 9 -33 6 -7 -2 -5 -5 4 -5 37 -2 44 -28 24 -102 -10 -38 -16 -72
-13 -74 2 -2 12 28 22 66 28 108 41 72 17 -47 -10 -54 -22 -125 -26 -157 -5
-41 -12 -60 -25 -67 -43 -23 -200 -53 -284 -53 -48 -1 -83 -3 -77 -5 6 -2 9
-8 5 -13 -8 -14 -40 -11 -54 6 -10 13 -9 15 11 16 15 0 7 5 -22 14 -63 17 -69
21 -70 58 l-2 32 -6 -35 c-6 -31 -8 -33 -17 -16 -21 36 35 267 78 322 12 14
35 33 52 41 21 9 24 13 9 9 -13 -2 -23 -1 -23 3 0 11 62 67 89 81 l24 12 -24
-38 c-13 -22 -27 -41 -31 -42 -5 -2 -6 -7 -4 -11 3 -4 -1 -32 -9 -62 -19 -71
-19 -129 1 -157 13 -20 24 -22 93 -22 93 0 94 1 147 120 46 105 62 130 83 130
13 0 13 2 2 9 -18 12 1 46 37 65 15 9 27 15 28 16 0 0 25 -7 54 -16z m66 -42
c7 -4 16 -23 22 -43 8 -29 7 -38 -7 -46 -15 -9 -15 -13 0 -45 16 -33 16 -35
-2 -46 -42 -26 -61 -88 -64 -211 -2 -80 -1 -97 4 -56 6 53 8 57 15 32 11 -37
1 -97 -20 -116 -14 -13 -15 -13 -9 -1 5 8 6 13 2 10 -166 -139 -210 -187 -236
-257 -22 -60 -24 -62 -65 -68 -22 -4 -63 -5 -91 -3 -43 3 -51 7 -60 28 -5 14
-34 72 -64 130 -46 90 -54 114 -56 167 -2 35 1 60 6 57 5 -3 9 -13 9 -23 0
-25 17 -37 73 -52 46 -11 49 -11 76 15 29 28 78 35 87 12 3 -8 13 -16 23 -19
32 -8 156 14 190 34 19 11 40 18 48 15 11 -4 11 -1 3 15 -13 23 0 164 27 291
12 61 13 81 4 92 -15 18 -2 46 35 75 29 23 34 24 50 13z m65 -144 c14 -26 -7
-23 -25 4 -22 31 -21 61 0 33 9 -11 20 -28 25 -37z m38 -72 c25 -39 27 -60 6
-53 -19 8 -52 -35 -66 -87 -14 -50 -17 -180 -6 -220 7 -25 6 -28 -6 -17 -24
19 -37 97 -36 211 1 70 6 114 16 133 8 16 12 31 9 34 -3 3 -15 -14 -26 -38
-11 -24 -20 -38 -20 -31 0 19 26 66 46 83 11 9 15 9 10 2 -4 -7 -2 -13 3 -13
6 0 11 7 11 15 0 28 38 16 59 -19z m95 -127 c30 -35 33 -51 10 -42 -26 10 -44
-25 -44 -83 0 -36 5 -58 17 -69 16 -16 17 -16 30 1 7 10 13 13 13 7 0 -6 -7
-17 -16 -24 -14 -11 -19 -10 -35 10 -34 42 -19 191 18 177 7 -3 13 -1 13 4 0
6 -8 10 -19 10 -29 0 -44 -50 -39 -131 3 -59 8 -75 26 -89 18 -15 19 -20 7
-30 -41 -34 -86 32 -88 133 -1 34 1 76 6 92 l7 30 -15 -25 c-17 -29 -20 -14
-4 27 7 19 12 24 18 14 6 -10 10 -9 14 3 10 27 53 19 81 -15z m-898 -118 c-1
-68 -4 -104 -10 -94 -15 28 -20 140 -6 173 7 16 13 30 14 30 1 0 2 -49 2 -109z
m931 -23 c-2 -18 -4 -6 -4 27 0 33 2 48 4 33 2 -15 2 -42 0 -60z m-910 -25
c-2 -16 -4 -5 -4 22 0 28 2 40 4 28 2 -13 2 -35 0 -50z m32 -56 c6 -32 5 -45
-1 -39 -6 6 -12 41 -13 79 -2 37 -1 55 1 38 3 -16 9 -52 13 -78z m427 88 c-22
-17 -52 -20 -60 -6 -8 12 11 19 49 20 29 0 29 0 11 -14z m-101 -25 c3 -5 1
-10 -4 -10 -6 0 -11 5 -11 10 0 6 2 10 4 10 3 0 8 -4 11 -10z m98 -7 c-7 -2
-19 -2 -25 0 -7 3 -2 5 12 5 14 0 19 -2 13 -5z m-280 -20 c-7 -2 -19 -2 -25 0
-7 3 -2 5 12 5 14 0 19 -2 13 -5z m508 -107 c19 -3 29 -12 29 -23 0 -43 -23
-92 -59 -127 l-39 -38 -18 31 c-10 16 -21 28 -26 25 -4 -3 -8 3 -8 13 0 10 18
40 40 67 29 35 40 58 42 85 1 35 1 35 5 5 3 -26 10 -33 34 -38z m-133 17 c-20
-21 -40 -47 -45 -58 -15 -31 -36 -160 -31 -186 3 -16 -3 -32 -17 -47 l-21 -22
-32 45 -32 45 21 55 c11 31 32 69 47 87 24 29 131 118 142 118 2 0 -12 -17
-32 -37z m-402 -235 c3 -18 0 -46 -7 -63 l-13 -30 -3 30 c-4 32 -31 174 -38
202 -3 10 8 -10 25 -44 17 -34 33 -76 36 -95z m705 82 c20 -6 52 -21 70 -35
19 -13 45 -29 58 -35 l25 -11 -28 -18 c-66 -43 -187 -216 -238 -338 -15 -36
-30 -56 -47 -63 -25 -10 -25 -10 4 -4 16 3 31 6 31 7 1 1 20 38 42 82 46 93
138 219 210 289 63 61 85 58 107 -16 20 -67 19 -69 -9 -62 -35 8 -88 -11 -118
-44 -14 -15 -41 -54 -59 -87 -37 -69 -67 -105 -85 -105 -7 0 -26 -17 -41 -37
-15 -21 -44 -53 -63 -71 l-34 -35 112 5 c129 5 133 7 187 103 49 89 117 176
161 207 l37 26 53 -26 c50 -24 68 -42 44 -42 -20 0 -92 -75 -115 -120 -30 -59
-52 -139 -61 -215 l-6 -61 -127 -82 c-69 -46 -142 -97 -161 -113 -23 -21 -13
-16 30 13 36 25 109 72 163 106 l97 61 1 -42 c0 -23 4 -60 9 -82 6 -28 7 -13
3 50 -11 181 42 362 127 439 50 45 86 47 125 9 l27 -28 -40 -3 c-48 -4 -90
-41 -124 -111 -40 -83 -50 -147 -55 -376 -6 -244 -6 -246 -75 -315 -80 -80
-432 -330 -465 -330 -28 0 -10 22 52 61 36 22 65 43 65 46 0 5 -53 -26 -115
-68 l-41 -27 -66 26 c-49 20 -85 44 -131 88 l-64 61 -5 199 c-5 187 -4 206 19
309 30 132 42 156 90 192 21 15 39 27 40 28 1 0 13 54 28 120 15 66 33 131 40
145 7 14 65 65 128 113 190 144 217 191 124 214 -27 6 -54 14 -60 17 -19 10
84 -2 124 -14z m-251 -58 c0 -8 -6 -12 -14 -9 -9 4 -12 0 -9 -11 2 -11 -12
-32 -38 -57 -23 -22 -35 -30 -28 -18 11 18 11 26 -1 49 -14 26 -13 28 25 61
37 31 40 33 52 17 7 -10 13 -24 13 -32z m-502 -37 l1 -20 -9 20 c-5 11 -8 31
-8 45 l0 25 8 -25 c4 -14 8 -34 8 -45z m702 40 c0 -8 -7 -11 -20 -8 -23 6 -26
19 -7 26 16 6 27 -1 27 -18z m-116 -1 c3 -9 5 -30 5 -47 -1 -21 -3 -25 -6 -12
-3 11 -9 24 -14 30 -12 12 -12 45 0 45 5 0 12 -7 15 -16z m-643 -64 c-35 -63
-51 -154 -51 -304 l0 -138 31 -27 c80 -67 99 -89 99 -117 0 -33 -50 -247 -56
-241 -3 2 4 45 16 96 28 125 27 155 -5 169 -14 7 -34 12 -43 11 -9 0 -1 -5 18
-12 45 -16 48 -39 20 -163 -12 -53 -20 -104 -17 -115 3 -10 1 -17 -3 -14 -15
9 -21 -110 -11 -218 8 -79 8 -115 0 -130 -26 -47 -134 -168 -156 -173 -17 -5
-38 5 -81 37 -83 63 -181 158 -208 204 -29 50 -52 148 -59 251 -6 83 12 264
25 264 5 0 6 8 3 19 -8 32 26 239 46 278 10 21 30 48 43 59 25 23 118 79 118
71 0 -2 -7 -24 -16 -48 -8 -24 -18 -81 -21 -126 -7 -97 1 -113 58 -113 52 0
65 27 73 160 7 116 21 182 56 250 27 55 70 113 77 106 3 -3 17 4 32 15 24 19
26 19 30 3 1 -9 -6 -34 -18 -54z m360 -31 c28 -30 40 -37 60 -32 l24 6 -23
-25 c-12 -14 -34 -31 -47 -38 -21 -11 -27 -11 -43 3 -13 12 -42 17 -107 19
l-90 3 -3 34 c-7 74 -4 76 100 72 l93 -3 36 -39z m99 16 c0 -15 -38 -40 -47
-31 -7 7 26 46 39 46 4 0 8 -7 8 -15z m-451 -39 c-26 -59 -42 -185 -37 -300 2
-54 -1 -91 -6 -86 -5 5 -7 77 -4 162 4 139 6 158 30 211 15 31 29 57 32 57 3
0 -4 -20 -15 -44z m118 -52 c26 -45 28 -55 10 -48 -18 6 -62 97 -45 92 7 -3
23 -22 35 -44z m963 -17 c-52 -13 -137 -108 -195 -217 -59 -111 -94 -136 -39
-29 86 171 195 283 254 261 9 -4 2 -9 -20 -15z m-83 7 c-3 -3 -12 -4 -19 -1
-8 3 -5 6 6 6 11 1 17 -2 13 -5z m588 -34 c136 -54 296 -141 348 -189 29 -27
57 -103 57 -158 0 -38 -18 -43 -74 -19 -60 25 -98 147 -48 159 49 11 85 -36
95 -128 3 -23 4 -20 6 12 3 102 -73 178 -129 128 -15 -14 -20 -12 -52 17 -34
32 -98 74 -98 64 0 -2 15 -14 33 -25 54 -33 87 -68 87 -92 0 -12 14 -52 30
-88 33 -70 34 -71 122 -75 23 -1 31 -9 47 -46 11 -25 35 -79 55 -120 19 -41
31 -76 26 -78 -23 -8 -134 22 -263 72 -78 30 -205 75 -282 102 -77 26 -150 56
-162 67 -31 28 -44 75 -46 165 -1 70 2 85 31 145 36 72 81 117 118 117 13 0
58 -14 99 -30z m-1804 -32 c-39 -58 -53 -119 -49 -212 3 -66 1 -74 -10 -59
-20 26 -9 170 18 230 20 45 59 97 67 89 2 -2 -9 -23 -26 -48z m261 -132 c-5
-159 -22 -186 -22 -34 0 72 16 198 24 186 1 -2 0 -70 -2 -152z m222 61 c21 -4
21 -4 -1 -6 -26 -1 -49 29 -57 74 -5 22 -1 18 15 -17 14 -31 28 -48 43 -51z
m137 55 c-42 -54 -57 -64 -83 -59 -21 4 -21 4 4 6 19 1 38 15 64 46 20 25 38
45 41 45 3 0 -9 -17 -26 -38z m-908 -15 c18 -8 38 -21 45 -29 10 -12 3 -11
-27 4 -54 27 -94 13 -156 -53 -66 -71 -103 -156 -125 -290 -10 -65 -24 -115
-31 -121 -8 -5 -36 -21 -64 -35 -72 -37 -202 -119 -262 -164 -61 -46 -62 -43
-33 63 15 54 20 103 20 191 l0 119 31 29 c17 16 36 29 42 29 18 0 -1 -121 -41
-257 -22 -73 -36 -130 -31 -127 5 3 9 12 9 20 0 8 3 13 8 12 7 -3 242 170 242
178 0 6 -91 -60 -177 -129 -35 -27 -63 -47 -63 -44 0 2 14 48 30 103 17 54 33
131 37 169 6 70 22 117 45 131 9 5 8 1 -1 -12 -8 -10 1 -3 20 17 66 68 272
180 366 198 69 13 80 13 116 -2z m690 -57 c9 -25 21 -65 27 -89 l11 -43 55 4
c48 4 94 27 94 47 0 4 -32 5 -71 3 -53 -3 -74 -1 -80 9 -16 26 -9 29 59 29 91
0 106 6 121 45 6 18 18 39 27 46 13 11 13 8 -1 -17 -8 -16 -24 -54 -35 -85
-31 -86 -38 -92 -111 -97 l-64 -4 -27 83 c-38 122 -42 136 -30 124 5 -5 17
-30 25 -55z m-648 -43 c-16 -25 -17 -25 -45 -9 l-30 17 35 6 c19 3 38 9 42 12
15 15 13 -3 -2 -26z m-172 -138 c-14 -28 -32 -75 -40 -103 l-13 -51 6 50 c5
45 32 111 56 143 21 25 17 11 -9 -39z m90 19 c-26 -28 -53 -82 -53 -103 0 -9
-7 -23 -15 -31 -13 -14 -16 -14 -21 0 -8 21 30 101 62 131 33 31 55 33 27 3z
m1786 -79 c-6 -51 -9 -116 -6 -144 5 -42 4 -46 -5 -25 -16 36 -15 188 1 233 7
21 15 37 17 35 2 -2 -1 -47 -7 -99z m66 79 c-39 -126 -41 -198 -9 -277 12 -32
12 -34 -1 -16 -38 48 -55 206 -30 270 10 26 23 45 32 45 11 0 13 -6 8 -22z
m-923 -30 c-20 -21 -32 -23 -124 -23 -72 0 -102 4 -105 13 -4 9 15 12 69 13
40 0 93 4 118 8 25 5 49 9 55 10 5 0 -1 -9 -13 -21z m-908 -3 c-19 -14 -18
-14 4 -15 26 0 26 0 6 -48 -9 -20 -20 -57 -24 -82 l-9 -45 2 58 c1 31 1 57 -1
57 -2 0 -8 -14 -14 -31 -9 -27 -12 -29 -21 -14 -19 34 30 135 65 135 7 0 3 -7
-8 -15z m648 -12 c26 -25 32 -26 118 -24 49 1 90 -1 90 -4 0 -3 -11 -23 -25
-44 l-24 -39 -82 1 -82 2 -14 40 c-7 21 -22 49 -33 60 -26 27 -25 35 2 35 12
0 34 -12 50 -27z m1195 -55 c-6 -47 6 -130 27 -193 3 -11 -3 -1 -14 22 -25 52
-41 223 -20 223 10 0 11 -13 7 -52z m30 -30 c-3 -7 -5 -2 -5 12 0 14 2 19 5
13 2 -7 2 -19 0 -25z m-1960 -110 c-2 -18 -4 -6 -4 27 0 33 2 48 4 33 2 -15 2
-42 0 -60z m1970 35 c-3 -10 -5 -4 -5 12 0 17 2 24 5 18 2 -7 2 -21 0 -30z
m-1067 17 c0 -6 -9 -50 -21 -98 -11 -48 -23 -98 -26 -112 -6 -25 -6 -25 -13 5
l-8 30 -1 -28 c0 -15 8 -40 19 -55 19 -25 20 -37 14 -160 l-7 -132 -108 0
-108 0 -6 43 c-3 23 -5 85 -3 137 3 92 3 94 18 65 15 -29 18 -30 89 -33 41 -2
78 1 83 6 6 6 -18 7 -60 4 -63 -4 -71 -2 -90 19 -12 12 -22 30 -22 38 0 9 14
76 32 148 l33 133 93 0 c57 0 92 -4 92 -10z m964 -106 c3 -8 2 -12 -4 -9 -6 3
-10 10 -10 16 0 14 7 11 14 -7z m256 -52 c0 -11 -15 -23 -47 -34 -65 -24 -74
-11 -17 23 57 34 64 35 64 11z m165 -12 c17 -6 32 -55 93 -303 41 -162 80
-304 88 -315 11 -17 12 -26 0 -58 -17 -52 -48 -58 -71 -14 -9 18 -14 38 -11
46 3 8 1 14 -5 14 -6 0 -9 7 -5 15 3 8 1 15 -3 15 -5 0 -7 10 -3 22 3 15 2 19
-7 14 -9 -6 -10 0 -6 21 5 22 4 25 -5 13 -9 -12 -10 -9 -5 13 4 20 2 27 -6 22
-8 -5 -9 -1 -4 15 5 17 4 21 -6 15 -9 -6 -11 -3 -6 9 9 24 -2 68 -16 59 -7 -4
-8 0 -4 11 4 10 4 29 1 43 -5 19 -9 22 -16 11 -7 -9 -8 -6 -4 12 7 31 -3 72
-15 64 -6 -3 -7 6 -3 22 5 21 4 25 -6 19 -10 -6 -12 -1 -8 19 3 14 2 26 -2 26
-4 0 -13 33 -20 73 -7 39 -17 82 -21 95 -9 22 -8 23 23 17 18 -4 42 -11 53
-15z m-90 -10 c4 -6 19 -70 35 -143 24 -117 127 -509 146 -562 7 -20 7 -20
-14 -1 -20 17 -28 18 -72 8 -62 -14 -104 -40 -91 -56 4 -6 14 -28 20 -48 14
-42 33 -48 80 -23 30 15 42 48 31 81 -4 10 -5 23 -3 27 8 13 53 -34 53 -55 0
-11 5 -29 11 -41 9 -17 9 -19 -1 -11 -9 9 -31 4 -88 -22 -89 -39 -79 -44 -142
76 -50 98 -118 272 -170 438 -44 143 -54 149 -14 9 40 -140 156 -452 175 -471
5 -6 9 -17 9 -25 -1 -13 -4 -12 -16 4 -58 72 -182 439 -219 646 -8 44 0 51
150 127 109 56 111 57 120 42z m210 -70 c18 -20 102 -477 90 -489 -3 -2 -5 1
-5 8 0 7 -5 9 -10 6 -14 -9 -24 21 -85 269 -30 122 -57 230 -61 240 -7 19 -6
19 25 0 18 -10 38 -26 46 -34z m-2454 14 c13 -37 -2 -46 -52 -29 -79 27 -76
25 -49 41 36 20 91 14 101 -12z m1881 -94 c37 -17 39 -20 17 -20 -32 0 -75 38
-95 85 -24 58 -15 64 11 7 20 -43 32 -56 67 -72z m-2132 78 c0 -2 -15 -46 -34
-98 -40 -115 -87 -302 -117 -469 -17 -97 -24 -120 -32 -106 -31 55 91 610 144
656 19 16 39 25 39 17z m136 -36 l91 -34 -29 -91 c-56 -179 -120 -443 -131
-550 -8 -74 -15 -106 -23 -103 -7 3 -30 10 -51 16 l-40 12 24 24 c12 13 23 30
23 38 0 8 9 18 20 21 15 5 20 15 20 41 0 19 -2 34 -5 34 -2 0 -27 9 -54 20
l-49 19 -11 -29 c-6 -19 -6 -30 0 -30 5 0 9 7 9 15 0 24 22 27 63 10 28 -12
37 -21 37 -40 0 -35 -11 -37 -70 -12 l-52 22 -29 -32 c-36 -42 -45 -27 -24 43
20 69 67 299 69 336 0 14 5 24 10 21 5 -3 7 6 4 20 -3 15 -2 24 2 22 11 -7 44
111 35 125 -5 8 -4 11 2 7 6 -4 14 5 18 20 11 45 34 95 42 91 5 -1 49 -18 99
-36z m158 -62 c25 -10 46 -24 46 -29 0 -17 -65 -192 -128 -342 -81 -194 -90
-225 -70 -245 14 -14 15 -14 11 8 -4 24 14 73 142 388 72 176 84 199 86 160 7
-117 -37 -253 -146 -452 -51 -93 -135 -198 -158 -198 -14 0 1 137 29 258 32
145 126 472 135 472 4 0 28 -9 53 -20z m1792 -207 c20 -32 40 -29 81 15 37 38
36 25 -1 -16 -48 -54 -79 -50 -107 12 -12 26 -19 34 -19 21 0 -27 34 -81 60
-95 34 -18 74 4 95 51 10 21 20 37 22 35 8 -8 -27 -172 -52 -246 -14 -40 -36
-87 -49 -105 -37 -49 -120 -98 -164 -97 -38 0 -132 35 -132 49 0 4 30 21 66
37 69 31 144 95 144 123 0 12 -12 6 -42 -24 -57 -54 -140 -97 -173 -89 -31 8
-34 41 -5 56 12 6 20 7 20 1 0 -15 31 -42 41 -35 5 3 -1 14 -13 25 -20 16 -21
20 -8 29 8 6 26 13 40 17 39 10 128 72 136 95 3 11 3 71 -1 132 -4 62 -3 130
1 151 l8 40 18 -80 c10 -43 25 -90 34 -102z m-82 6 c3 -17 6 -58 6 -90 0 -54
-2 -60 -32 -82 -18 -14 -65 -41 -105 -61 -99 -49 -124 -89 -70 -113 l21 -10
-21 -5 c-20 -5 -181 57 -267 103 l-28 16 99 61 c55 34 104 62 109 62 4 0 27
-19 50 -41 49 -48 74 -52 136 -19 82 42 89 57 67 147 -10 37 -9 47 2 54 22 14
26 11 33 -22z m-115 -12 c-19 -17 -53 -46 -74 -63 -38 -30 -39 -31 -26 -62 15
-35 34 -43 29 -13 -2 13 10 29 39 50 22 16 49 44 59 60 10 17 21 31 25 31 10
0 28 -90 22 -106 -7 -20 -68 -55 -110 -65 -33 -7 -39 -5 -71 27 -18 18 -32 38
-30 44 3 10 159 130 168 130 3 0 -11 -15 -31 -33z m-1410 -35 c5 -20 15 -57
21 -81 7 -27 26 -59 49 -83 37 -37 38 -38 56 -18 11 13 16 30 13 50 -5 30 -4
30 16 12 12 -11 38 -31 60 -45 l38 -25 -42 -31 c-68 -49 -141 -36 -173 31 -14
30 -44 132 -62 211 -9 43 13 23 24 -21z m117 -119 c3 -12 3 -31 -1 -43 -7 -21
-8 -21 -41 11 -32 31 -54 80 -54 124 0 15 9 10 45 -25 25 -25 48 -55 51 -67z
m629 63 c11 -13 35 -43 53 -66 l34 -41 -28 -37 c-48 -64 -86 -107 -108 -119
-12 -7 -56 -12 -98 -13 -86 0 -101 8 -134 72 -39 76 -36 141 12 197 30 36 53
41 164 35 75 -4 87 -7 105 -28z m127 -128 c14 -11 5 -23 -75 -95 l-92 -82
-104 -1 c-101 0 -106 1 -135 28 l-31 27 29 -32 30 -33 111 0 110 0 68 61 68
61 43 -22 c42 -23 43 -24 41 -73 -1 -43 -6 -54 -36 -80 -99 -88 -162 -149
-143 -139 12 6 56 43 98 83 42 39 79 70 81 67 2 -2 -39 -43 -92 -91 l-95 -87
-113 0 -112 0 -27 50 c-15 28 -43 96 -61 151 -19 56 -43 117 -54 135 -21 34
-16 44 8 22 8 -8 11 -8 8 -2 -4 7 -1 17 6 23 11 8 19 1 37 -32 12 -23 34 -54
48 -69 24 -26 31 -28 114 -28 87 0 88 0 128 36 22 20 56 58 76 85 39 53 42 55
66 37z m91 -42 c45 -18 47 -20 31 -37 -22 -25 -51 -24 -93 2 -32 19 -33 21
-15 40 10 11 20 18 23 17 3 -2 28 -12 54 -22z m-673 -36 c31 -31 26 -76 -17
-128 -41 -50 -47 -47 -58 36 -12 93 26 141 75 92z m-123 -14 c2 -1 -3 -31 -10
-65 l-13 -63 -37 70 -37 70 48 -6 c26 -2 48 -5 49 -6z m1084 -51 c13 -4 64
-26 113 -47 109 -49 154 -49 218 2 38 31 40 32 33 9 -4 -13 -28 -66 -53 -118
l-45 -93 -54 6 c-75 9 -174 59 -233 120 -54 56 -63 68 -104 139 l-28 47 64
-29 c35 -15 75 -32 89 -36z m1167 -17 c0 -40 2 -83 6 -96 13 -41 -12 -116 -54
-160 -73 -75 -212 -162 -261 -162 -13 0 -39 56 -39 83 0 20 10 26 71 46 39 12
69 25 66 27 -2 2 -30 -5 -62 -16 -32 -11 -60 -18 -62 -16 -7 6 149 56 158 50
5 -3 9 0 9 6 0 6 4 9 8 6 10 -6 84 69 101 102 8 16 10 48 5 102 -7 87 -3 100
31 100 24 0 25 -2 23 -72z m81 -63 c17 -20 31 -46 31 -58 -1 -21 -1 -21 -12
-2 -12 23 -37 45 -51 45 -5 0 -7 -24 -5 -55 4 -45 2 -55 -11 -55 -14 0 -16 19
-18 128 l-3 127 19 -48 c11 -26 33 -63 50 -82z m-160 5 c0 -28 -2 -31 -9 -15
-5 11 -8 45 -8 75 0 55 0 55 9 15 4 -22 8 -56 8 -75z m-1319 96 c0 -2 -17 -14
-37 -26 -28 -16 -33 -17 -23 -5 8 10 23 21 35 25 25 11 25 11 25 6z m1111 -27
c9 -18 8 -19 -9 -8 -10 6 -19 18 -19 25 0 17 14 8 28 -17z m-44 6 c0 -8 -5
-12 -10 -8 -5 3 -7 -3 -5 -13 2 -13 12 -19 32 -19 25 1 26 0 10 -12 -23 -17
-36 -12 -51 18 -11 20 -10 26 4 37 21 15 20 15 20 -3z m-1872 -109 c8 -28 13
-51 11 -53 -2 -2 -15 14 -30 36 -24 35 -27 45 -20 88 l8 48 8 -35 c5 -19 15
-57 23 -84z m2053 49 c5 -16 13 -39 17 -50 3 -11 -7 5 -24 35 -17 30 -30 59
-31 65 0 17 27 -20 38 -50z m-2790 33 c7 -7 12 -19 11 -27 0 -10 -4 -7 -9 7
-11 25 -45 30 -54 6 -11 -30 -6 -44 17 -44 17 0 19 -2 8 -9 -19 -12 -51 4 -51
25 0 45 49 71 78 42z m-148 -15 c-1 -12 -80 -149 -80 -139 0 17 63 146 71 146
5 0 9 -3 9 -7z m120 -13 c0 -5 -5 -10 -11 -10 -5 0 -7 5 -4 10 3 6 8 10 11 10
2 0 4 -4 4 -10z m1680 2 c0 -4 -15 -16 -32 -26 -18 -10 -57 -36 -85 -58 -29
-21 -53 -34 -53 -29 0 7 156 120 168 121 1 0 2 -4 2 -8z m-1916 -46 c-14 -25
-39 -100 -55 -167 -22 -89 -39 -134 -60 -163 l-29 -40 5 34 c4 19 8 44 11 55
3 11 9 57 14 102 5 45 16 96 26 115 28 54 74 108 94 108 17 0 17 -4 -6 -44z
m239 -31 c85 -33 107 -49 88 -67 -10 -11 -11 -10 -6 5 4 9 3 17 -1 17 -5 0
-48 11 -95 24 l-87 24 5 -21 c3 -16 2 -18 -5 -9 -7 10 -12 6 -22 -18 -7 -17
-15 -29 -17 -26 -3 2 8 32 23 66 20 45 30 58 36 47 4 -9 41 -27 81 -42z m1667
31 c0 -9 -81 -68 -86 -63 -3 3 13 19 37 36 42 31 49 35 49 27z m1498 -65 c17
-26 39 -54 47 -61 14 -11 13 -14 -2 -26 -15 -10 -18 -26 -16 -88 3 -102 19
-197 37 -214 13 -13 13 -9 0 28 -18 51 -24 243 -9 249 6 2 16 -9 24 -25 21
-41 22 -254 2 -278 -13 -15 -16 -15 -29 -2 -9 8 -21 41 -28 73 -12 55 -12 56
-13 18 0 -22 8 -58 18 -81 18 -39 18 -42 1 -64 -15 -20 -21 -22 -34 -11 -17
14 -41 90 -55 172 l-9 54 -2 -50 c-4 -91 -18 -9 -19 111 -1 149 18 244 49 244
3 0 21 -22 38 -49z m-2928 8 c0 -6 -11 -20 -24 -30 -14 -11 -32 -42 -41 -70
-9 -28 -19 -48 -22 -45 -8 8 27 103 48 130 21 27 39 34 39 15z m684 -26 c13
-21 27 -49 31 -63 6 -24 6 -24 -19 5 -34 39 -57 81 -49 89 10 9 11 8 37 -31z
m1644 -23 l0 -25 -8 25 c-4 14 -8 34 -8 45 l-1 20 9 -20 c5 -11 8 -31 8 -45z
m-2918 16 c-5 -13 -14 -59 -21 -102 -6 -44 -18 -113 -25 -154 l-14 -75 5 75
c4 73 4 74 -10 41 -8 -18 -15 -50 -16 -70 0 -29 -2 -32 -9 -16 -26 60 3 197
59 278 35 52 45 59 31 23z m2105 15 c-3 -5 -47 -43 -98 -84 -50 -42 -110 -90
-132 -108 -36 -30 -38 -30 -15 -5 25 29 238 206 246 206 3 0 3 -4 -1 -9z
m-712 -91 l32 -55 117 -3 116 -3 80 61 c44 33 83 60 86 60 3 0 6 -21 5 -47 0
-38 -2 -44 -10 -28 -7 16 -8 13 -5 -15 3 -32 -2 -41 -61 -97 -36 -35 -60 -63
-55 -63 6 0 13 4 16 8 3 5 40 37 83 71 60 49 67 52 28 16 -27 -26 -76 -69
-108 -96 l-58 -49 -109 0 -110 0 -30 42 c-34 46 -50 97 -53 163 -1 25 -4 45
-7 45 -3 0 -6 17 -7 38 -2 41 -3 41 50 -48z m-803 5 c0 -70 -13 -83 -121 -124
-61 -23 -93 -42 -117 -69 l-33 -36 -52 18 c-54 19 -133 70 -139 90 -2 6 0 39
5 74 8 60 9 61 25 42 19 -22 144 -72 231 -92 52 -12 54 -13 26 -19 -28 -6 -28
-7 -4 -8 40 -2 119 29 134 53 7 11 16 39 20 61 14 84 25 88 25 10z m1593 44
c-8 -8 -16 -8 -30 0 -16 9 -14 10 12 11 21 0 26 -3 18 -11z m-1733 -55 c-10
-27 -19 -43 -20 -37 0 16 31 95 36 90 2 -2 -5 -25 -16 -53z m2423 -24 c3 -44
2 -67 -3 -55 -8 19 -14 143 -6 134 2 -2 6 -38 9 -79z m499 -230 c3 -165 2
-335 -3 -378 -4 -42 -13 -133 -20 -201 l-12 -125 25 -20 c14 -12 36 -30 50
-41 22 -17 25 -26 21 -57 l-5 -37 -37 23 c-20 13 -63 32 -95 42 -36 11 -64 27
-73 41 -13 20 -24 23 -72 22 -77 0 -121 -18 -150 -59 -13 -19 -21 -27 -18 -18
3 9 9 33 13 53 5 30 16 43 52 66 24 15 65 31 91 35 48 7 91 23 61 24 -45 0
-133 -30 -169 -59 l-41 -33 0 44 c0 58 -54 384 -76 460 -3 12 11 25 52 47 32
17 61 31 65 31 4 0 10 -12 14 -27 3 -16 15 -39 26 -53 l20 -25 -15 31 c-19 40
-49 171 -43 188 3 7 23 18 46 25 l41 12 0 53 0 54 58 42 c31 23 78 65 103 91
25 27 55 49 66 49 20 0 20 -8 25 -300z m-1422 281 c0 -5 -7 -12 -16 -15 -14
-5 -15 -4 -4 9 14 17 20 19 20 6z m198 -41 c15 0 15 -2 2 -10 -21 -14 -58 -12
-62 2 -3 7 -2 22 0 35 l4 23 20 -25 c11 -14 27 -25 36 -25z m779 28 c-3 -8 -6
-5 -6 6 -1 11 2 17 5 13 3 -3 4 -12 1 -19z m-1641 -20 l29 -33 -32 29 c-31 28
-38 36 -30 36 2 0 16 -15 33 -32z m2121 -15 c-3 -10 -5 -2 -5 17 0 19 2 27 5
18 2 -10 2 -26 0 -35z m-1194 6 c-17 -29 -69 -66 -79 -56 -5 4 84 87 93 87 2
0 -4 -14 -14 -31z m-884 -92 c7 -18 -61 28 -80 55 -40 55 -19 61 29 8 26 -29
49 -57 51 -63z m856 23 c-9 -10 -40 -27 -69 -36 -73 -24 -112 -46 -187 -106
-36 -29 -109 -88 -162 -130 l-97 -78 -109 0 c-110 0 -110 0 -130 29 -19 26
-37 86 -57 181 l-7 35 35 -45 34 -45 120 -3 120 -3 47 36 c46 35 68 45 49 23
-5 -7 -13 -34 -17 -60 -5 -35 -16 -57 -43 -84 -48 -50 -12 -29 73 43 143 120
234 184 291 207 33 12 73 30 89 39 39 21 42 21 20 -3z m-1556 -9 c24 -43 32
-114 20 -166 -22 -92 -92 -205 -148 -238 -47 -27 -49 -2 -6 69 20 32 44 85 53
117 l17 59 40 -5 c39 -5 39 -5 15 8 -54 30 -63 23 -122 -96 -61 -122 -60 -135
2 -18 22 41 40 70 40 65 0 -12 -45 -99 -72 -139 -21 -31 -24 -33 -38 -18 -23
24 -17 166 9 225 24 55 19 61 -7 9 -22 -43 -44 -177 -35 -211 3 -12 2 -22 -1
-22 -5 0 -103 52 -124 65 -7 5 74 164 96 188 15 16 49 34 82 44 66 19 121 46
139 67 18 21 28 20 40 -3z m1371 -3 c0 -18 -2 -20 -9 -8 -6 8 -7 18 -5 22 9
14 14 9 14 -14z m885 -42 c9 -3 29 -6 45 -6 15 0 32 -6 38 -13 10 -11 62 -188
62 -209 0 -8 -103 -68 -116 -68 -17 0 -67 203 -71 285 -4 76 -3 78 11 49 7
-17 21 -34 31 -38z m-61 27 c-7 -29 -21 -50 -28 -42 -5 5 21 69 29 69 3 0 2
-12 -1 -27z m573 -30 c-3 -10 -5 -2 -5 17 0 19 2 27 5 18 2 -10 2 -26 0 -35z
m-3248 -3 c20 -16 43 -36 52 -44 13 -10 16 -25 12 -59 -5 -44 -4 -45 26 -52
17 -3 33 -10 36 -14 5 -9 -23 -86 -58 -156 -14 -27 -44 -115 -66 -195 -23 -80
-43 -150 -45 -156 -3 -8 -18 -8 -54 -1 -43 9 -55 8 -91 -10 -50 -25 -50 -22
-16 85 43 135 87 405 84 510 -1 30 -3 36 -6 17 -2 -16 -18 -127 -36 -245 l-32
-215 -3 110 c-4 148 14 317 39 366 13 27 34 46 67 63 26 14 49 25 51 26 2 0
20 -13 40 -30z m1162 10 l24 -21 -32 16 c-32 15 -42 25 -24 25 5 0 19 -9 32
-20z m-40 -27 c12 -15 12 -16 -1 -8 -8 4 0 -8 18 -26 17 -19 32 -38 32 -41 0
-3 -18 3 -40 13 -33 16 -40 24 -40 49 0 34 11 38 31 13z m892 -11 c11 -10 17
-30 17 -58 0 -46 -19 -74 -50 -74 -11 0 -50 -11 -86 -25 -37 -14 -69 -23 -71
-21 -8 7 121 61 137 58 8 -2 12 -1 9 3 -4 3 4 17 17 30 13 13 24 35 24 49 0
37 -54 45 -120 18 -28 -12 -50 -19 -50 -16 0 10 96 48 118 46 15 -1 21 2 16
10 -8 13 12 3 39 -20z m-233 -3 c-7 -11 -14 -18 -17 -15 -8 8 5 36 17 36 7 0
7 -6 0 -21z m941 -202 c17 -71 29 -131 26 -133 -7 -8 -55 76 -83 144 -30 74
-34 198 -6 204 13 3 19 -6 25 -42 4 -25 22 -103 38 -173z m229 168 c0 -18 -7
-28 -26 -35 -38 -15 -44 -13 -44 15 0 17 7 29 23 35 37 15 47 11 47 -15z m328
-51 c24 -109 32 -133 59 -164 22 -27 24 -34 14 -56 -18 -41 -51 -28 -81 31
-20 41 -25 68 -28 154 -4 84 -2 103 9 99 8 -2 20 -31 27 -64z m-3149 7 c25
-19 22 -41 -7 -41 -30 0 -45 16 -37 39 8 26 13 26 44 2z m1049 -56 l36 -50
-38 35 c-42 39 -66 75 -46 68 7 -2 28 -26 48 -53z m742 41 c0 -2 -15 -9 -32
-15 -30 -10 -31 -9 -14 4 18 14 46 20 46 11z m-96 -51 c-16 -13 -42 -31 -59
-40 l-30 -16 29 23 c17 13 39 32 50 44 12 11 25 18 30 16 4 -3 -5 -15 -20 -27z
m-652 -32 c37 -35 36 -50 -2 -23 -16 12 -30 17 -30 11 0 -6 -4 -11 -10 -11
-11 0 -14 33 -3 43 10 11 15 9 45 -20z m822 15 c-5 -8 -2 -9 9 -5 11 4 22 -2
32 -16 24 -35 17 -41 -16 -13 -17 14 -39 26 -48 26 -34 0 -156 -69 -256 -146
-175 -133 -206 -148 -54 -27 112 90 193 143 257 169 63 26 87 30 76 12z m1456
-5 c0 -20 -41 -72 -61 -78 -18 -6 -28 -1 -46 19 -13 15 -23 32 -23 39 0 6 7 1
16 -11 21 -30 49 -28 76 8 21 29 38 39 38 23z m-2206 -178 c26 -130 28 -166 6
-101 -10 30 -39 200 -40 230 0 32 13 -17 34 -129z m-144 111 c0 -8 -7 -16 -15
-20 -34 -13 -14 -74 88 -261 l32 -60 159 -8 c87 -5 173 -6 190 -3 19 4 66 35
116 77 83 69 221 165 328 228 43 25 57 29 73 20 29 -15 19 -30 -27 -44 -109
-33 -242 -125 -405 -282 l-121 -116 -166 7 c-113 4 -169 10 -174 19 -4 7 -14
35 -23 63 -14 48 -46 99 -97 154 -30 34 -12 6 28 -43 18 -21 39 -65 49 -99 15
-53 15 -70 5 -113 -7 -28 -11 -74 -9 -102 2 -28 3 -51 2 -50 -65 68 -88 133
-108 309 -23 210 0 337 63 338 6 0 12 -6 12 -14z m-924 -28 c75 -39 83 -53 52
-86 -14 -15 -31 -45 -38 -67 -7 -22 -39 -102 -71 -178 -33 -76 -59 -144 -59
-151 0 -18 45 -58 55 -49 4 5 2 -2 -4 -14 -14 -28 -13 -28 -64 1 -85 50 -232
71 -289 42 l-28 -15 15 29 c8 16 15 35 15 43 0 20 65 47 113 47 23 -1 60 -7
82 -15 43 -16 58 -13 26 5 -12 6 -19 15 -16 20 3 5 26 80 51 167 41 143 88
258 103 251 3 -2 29 -15 57 -30z m1144 -52 c18 -3 74 -6 125 -6 79 0 96 3 119
21 l27 21 -7 -28 c-3 -16 -13 -53 -22 -83 l-16 -53 -124 4 c-89 3 -126 8 -132
17 -4 8 -13 41 -20 75 -6 34 -13 70 -16 81 -3 12 2 8 14 -11 13 -20 31 -33 52
-38z m-221 7 c-1 -33 -2 -35 -8 -13 -4 14 -6 31 -3 38 8 22 12 13 11 -25z
m861 23 c0 -2 -12 -11 -27 -20 l-28 -17 24 20 c23 21 31 25 31 17z m-126 -67
c-37 -39 -43 -29 -8 17 16 20 30 31 32 24 2 -6 -8 -25 -24 -41z m350 24 c20
-41 30 -93 16 -93 -6 0 -13 8 -16 18 -5 14 -17 42 -42 95 -2 4 3 7 12 7 8 0
22 -12 30 -27z m-1022 -23 c-2 -16 -9 -30 -14 -30 -6 0 -8 10 -4 23 3 12 6 28
6 35 0 7 4 11 8 8 5 -3 7 -19 4 -36z m944 26 c3 -7 -18 -37 -48 -67 -29 -30
-81 -96 -115 -146 -67 -98 -258 -320 -292 -341 -19 -11 -22 -10 -31 10 -19 44
-41 149 -34 161 4 7 -8 -2 -27 -19 -101 -91 -108 -94 -220 -96 l-104 -2 93 -3
92 -4 0 -82 c0 -95 16 -236 32 -287 15 -48 47 -95 78 -114 30 -19 23 -19 -89
-6 -71 8 -89 14 -113 37 -40 39 -67 117 -98 293 -16 85 -29 146 -29 135 -2
-34 40 -267 60 -330 l18 -59 -24 29 c-47 56 -70 135 -100 347 -13 92 -14 112
-2 134 l14 26 16 -44 c9 -24 17 -49 17 -56 0 -7 5 -12 11 -12 12 0 5 29 -18
73 l-14 28 144 -7 c79 -4 157 -4 172 0 17 4 81 58 159 134 138 134 238 207
346 254 73 31 98 34 106 14z m-373 -11 c-3 -9 -8 -14 -10 -11 -3 3 -2 9 2 15
9 16 15 13 8 -4z m1527 -97 c-14 -124 -19 -152 -27 -145 -5 6 14 207 24 240
13 45 14 -1 3 -95z m103 65 c-6 -64 -43 -306 -47 -310 -2 -2 -13 8 -25 23 -14
18 -20 37 -17 53 3 14 8 78 11 142 l7 115 29 -4 c20 -3 31 1 35 12 10 26 12
19 7 -31z m-1646 -15 c-3 -8 -6 -5 -6 6 -1 11 2 17 5 13 3 -3 4 -12 1 -19z
m-1421 -6 c21 -7 18 -15 -60 -164 -46 -87 -85 -156 -88 -153 -8 8 -31 -52 -24
-64 8 -13 -21 -8 -36 7 -8 8 4 44 49 144 33 73 66 151 72 173 7 22 14 46 16
53 5 13 35 14 71 4z m2458 -14 c16 -25 62 -271 71 -378 4 -53 1 -46 -15 40
-10 58 -33 157 -49 220 -39 144 -40 169 -7 118z m-1556 -19 c0 -17 4 -36 9
-43 4 -6 0 -3 -9 7 -10 11 -18 30 -18 43 0 36 17 29 18 -7z m886 -42 c-16 -19
-35 -42 -42 -53 -11 -16 -11 -15 -1 6 11 24 58 80 67 80 2 0 -9 -15 -24 -33z
m-598 -47 c61 0 72 -3 68 -15 -4 -8 -10 -13 -14 -10 -5 3 -11 1 -14 -4 -10
-15 22 -6 42 12 33 30 47 19 16 -14 l-29 -30 -133 3 c-105 2 -135 6 -142 18
-7 10 -10 11 -10 3 0 -7 -4 -13 -10 -13 -12 0 -14 43 -2 54 4 5 40 5 81 2 41
-3 107 -6 147 -6z m-478 -85 c0 -29 0 -29 -8 -5 -4 14 -8 41 -8 60 l0 35 8
-30 c4 -16 8 -43 8 -60z m-1251 -2 c-3 -10 -5 -4 -5 12 0 17 2 24 5 18 2 -7 2
-21 0 -30z m1232 -35 c0 -32 -3 -46 -8 -35 -6 17 -8 17 -26 -3 -18 -20 -20
-20 -26 -3 -15 36 -10 81 9 86 48 13 52 9 51 -45z m2228 -40 c-2 -18 -4 -6 -4
27 0 33 2 48 4 33 2 -15 2 -42 0 -60z m-1262 -33 c-4 -25 -9 -44 -12 -41 -2 2
-1 25 2 51 4 25 9 44 12 41 2 -2 1 -25 -2 -51z m1350 -40 c-3 -22 -8 -52 -11
-68 l-6 -27 -30 17 c-16 10 -35 25 -41 33 -10 13 -10 13 5 1 33 -25 48 -7 48
60 0 62 0 62 21 44 16 -16 19 -27 14 -60z m-852 -22 c30 -60 60 -304 39 -317
-9 -5 -22 81 -22 153 0 20 -4 41 -8 48 -4 6 -7 -69 -7 -166 0 -177 0 -178 -27
-219 -32 -47 -35 -61 -11 -41 29 25 53 91 53 152 0 44 3 57 15 57 33 0 9 -240
-28 -277 -9 -9 -22 -13 -31 -10 -26 10 -38 78 -46 262 l-8 180 3 -190 c2 -222
13 -270 58 -270 30 1 36 -19 10 -34 -27 -15 -49 4 -70 56 -15 41 -18 78 -18
263 0 225 8 287 45 348 24 39 35 40 53 5z m-898 -111 c3 -12 15 -32 26 -43 21
-21 21 -22 4 -60 -10 -21 -25 -39 -33 -39 -12 0 -14 -10 -8 -56 8 -70 29 -112
64 -126 15 -7 29 -13 31 -14 1 -2 -7 -21 -20 -43 -37 -67 -73 -64 -124 13 -25
39 -26 46 -22 143 3 91 7 109 35 163 25 47 32 74 34 123 1 58 2 59 5 12 2 -27
6 -60 8 -73z m-54 -54 c-23 -40 -32 -73 -38 -128 -6 -67 -8 -71 -15 -40 -4 19
-10 85 -14 145 l-7 110 49 38 49 38 3 -55 c2 -46 -2 -63 -27 -108z m-1541 76
c0 -2 -9 0 -20 6 -11 6 -20 13 -20 16 0 2 9 0 20 -6 11 -6 20 -13 20 -16z
m-87 -1 c-9 -24 -122 -150 -151 -169 -19 -13 -16 -2 23 76 46 91 63 108 112
109 17 1 21 -3 16 -16z m47 -3 c0 -5 -4 -10 -10 -10 -5 0 -10 5 -10 10 0 6 5
10 10 10 6 0 10 -4 10 -10z m24 -16 c3 -8 2 -12 -4 -9 -6 3 -10 10 -10 16 0
14 7 11 14 -7z m3063 -51 c5 -14 -35 -43 -58 -43 -10 0 -20 -6 -22 -12 -2 -7
-3 0 -1 16 2 16 9 35 15 43 13 15 61 12 66 -4z m-3111 -1 c13 -8 34 -46 34
-60 0 -5 -11 -7 -25 -4 -27 5 -55 -12 -55 -35 0 -23 29 -27 53 -7 22 18 22 18
-1 -6 -25 -28 -49 -21 -67 18 -5 12 -13 22 -17 22 -16 0 -7 25 19 52 28 29 40
33 59 20z m132 -18 c12 -8 27 -25 33 -37 11 -21 10 -21 -17 3 -16 14 -31 29
-33 33 -1 5 -12 1 -22 -9 -21 -19 -25 -55 -8 -86 7 -14 8 -18 0 -14 -5 4 -15
23 -20 43 -8 29 -7 42 4 60 18 27 32 29 63 7z m3060 -8 c7 -16 27 -29 60 -40
l49 -17 12 -70 c7 -39 11 -72 9 -74 -9 -9 -68 36 -68 52 0 10 -10 23 -22 28
-13 6 -34 27 -47 47 -13 21 -26 36 -28 34 -10 -9 21 -60 54 -91 l37 -34 1
-113 0 -113 -30 -3 c-27 -3 -33 2 -49 35 -10 21 -20 63 -21 93 -2 44 -8 58
-29 77 -15 13 -35 23 -46 23 -15 0 -19 9 -22 55 -3 59 1 65 51 65 25 0 28 -5
48 -87 13 -49 25 -110 28 -138 11 -89 14 -97 38 -93 15 2 23 11 25 28 2 24 2
24 -12 6 -23 -28 -33 -13 -40 64 -3 38 -16 108 -28 155 -17 68 -19 90 -10 110
14 31 26 32 40 1z m-3308 -71 c-13 -14 -26 -23 -28 -20 -4 4 38 44 47 45 3 0
-6 -11 -19 -25z m1331 -21 c-7 -31 -9 -34 -10 -12 -1 27 9 62 15 55 3 -2 0
-22 -5 -43z m-604 -26 c-2 -13 -4 -5 -4 17 -1 22 1 32 4 23 2 -10 2 -28 0 -40z
m-767 9 c0 -25 -26 -51 -45 -43 -17 6 -16 8 5 31 26 28 40 32 40 12z m56 -2
c-11 -8 -25 -15 -30 -15 -6 1 0 7 14 15 32 19 40 18 16 0z m259 -15 c-3 -5
-11 -10 -16 -10 -6 0 -7 5 -4 10 3 6 11 10 16 10 6 0 7 -4 4 -10z m2849 -6 c3
-8 1 -24 -4 -35 -14 -26 -23 -24 -14 4 6 20 4 20 -24 -6 -16 -16 -38 -27 -48
-25 -15 3 -13 8 15 41 35 39 65 48 75 21z m-3071 -38 c7 -17 -19 -76 -33 -76
-6 0 -8 5 -5 10 3 6 2 10 -3 10 -6 0 -6 15 0 39 10 38 30 47 41 17z m241 -13
c4 -16 9 -35 12 -44 3 -12 -3 -18 -21 -21 -19 -4 -25 -1 -25 12 0 10 -3 32 -6
49 -6 26 -4 31 14 31 13 0 22 -9 26 -27z m-301 -8 c-3 -9 -8 -14 -10 -11 -3 3
-2 9 2 15 9 16 15 13 8 -4z m-86 -35 c0 -22 -4 -43 -8 -46 -5 -3 -9 15 -9 40
0 25 4 46 9 46 4 0 8 -18 8 -40z m53 20 c0 -5 -5 -10 -11 -10 -5 0 -7 5 -4 10
3 6 8 10 11 10 2 0 4 -4 4 -10z m3190 -40 c-12 -22 -30 -19 -30 5 0 7 8 21 18
31 15 16 17 16 20 1 2 -9 -2 -25 -8 -37z m75 30 c8 -25 -1 -40 -24 -40 -19 0
-31 25 -24 48 7 19 41 14 48 -8z m217 -13 c9 -15 11 -203 1 -194 -3 4 -6 37
-6 74 l0 68 -4 -62 c-2 -35 -7 -63 -11 -63 -22 1 -30 24 -34 112 l-5 96 26 -9
c14 -6 29 -16 33 -22z m-3475 -15 c13 -8 6 -92 -7 -92 -10 0 -20 37 -20 73 0
28 6 32 27 19z m336 -29 c-7 -2 -19 -2 -25 0 -7 3 -2 5 12 5 14 0 19 -2 13 -5z
m2737 -9 c0 -9 -5 -14 -12 -12 -18 6 -21 28 -4 28 9 0 16 -7 16 -16z m-3010
-55 c0 -22 -4 -39 -8 -39 -4 0 -6 15 -4 34 2 18 -1 37 -7 40 -6 4 -11 12 -11
18 0 7 6 6 15 -2 9 -7 15 -29 15 -51z m2984 23 c13 -15 14 -24 5 -50 -12 -35
-29 -43 -29 -14 0 14 -2 15 -10 2 -16 -25 -22 -4 -10 39 12 46 19 49 44 23z
m-3101 -39 c-3 -7 -9 -13 -14 -13 -11 0 -12 44 -2 54 9 9 22 -25 16 -41z m397
-7 c0 -30 -4 -57 -9 -60 -9 -6 -41 74 -41 101 0 7 11 13 25 13 24 0 25 -3 25
-54z m2933 27 c-7 -2 -19 -2 -25 0 -7 3 -2 5 12 5 14 0 19 -2 13 -5z m4 -30
c-4 -3 -2 -12 4 -19 12 -15 4 -34 -15 -34 -20 0 -39 27 -32 45 3 8 15 15 27
15 12 0 19 -3 16 -7z m-3217 -82 c0 -12 -6 -9 -20 9 -26 33 -26 48 0 25 11
-10 20 -25 20 -34z m47 14 c14 -31 12 -31 -17 0 -16 17 -19 25 -9 25 8 0 19
-11 26 -25z m-108 -11 c11 -15 18 -31 15 -36 -7 -12 -54 30 -54 49 0 21 17 15
39 -13z m3030 17 c16 -10 4 -54 -26 -100 -15 -24 -17 -24 -24 -6 -4 11 -8 41
-8 68 -1 42 1 47 22 47 12 0 28 -4 36 -9z m369 -53 c-12 -53 -18 -60 -18 -20
0 35 9 62 20 62 4 0 4 -19 -2 -42z m-62 -36 c-11 -10 -14 3 -7 38 l6 35 3 -33
c2 -19 1 -36 -2 -40z m-3224 37 c16 -9 18 -13 7 -20 -14 -8 -39 6 -39 22 0 12
7 11 32 -2z m3323 -29 c-4 -17 -9 -29 -12 -26 -3 2 -2 19 2 36 4 17 9 29 12
26 3 -2 2 -19 -2 -36z m-165 22 c0 -5 -7 -17 -15 -28 -8 -10 -15 -28 -15 -38
0 -13 -3 -17 -10 -10 -14 14 7 84 25 84 8 0 15 -4 15 -8z m-3180 -43 c0 -4 -4
-10 -9 -13 -10 -7 -54 38 -45 47 7 7 54 -22 54 -34z m85 -9 c-4 -6 -14 -5 -25
2 -24 16 -15 31 11 18 11 -6 17 -15 14 -20z m3127 -32 c-9 -24 -18 -36 -20
-27 -4 21 15 69 27 69 5 0 2 -19 -7 -42z m-3159 8 c30 -23 21 -38 -13 -21 -30
16 -40 35 -17 35 6 0 20 -7 30 -14z m3210 -31 c-9 -19 -20 -35 -25 -35 -11 0
-10 7 7 40 22 42 38 37 18 -5z m-3113 5 c13 -9 13 -10 0 -9 -8 0 -24 4 -35 9
l-20 9 20 0 c11 0 27 -4 35 -9z m2956 -30 c-14 -17 -26 -26 -26 -19 0 15 41
61 48 54 2 -2 -7 -18 -22 -35z m211 13 c-2 -18 -9 -29 -20 -31 -17 -4 -17 -2
-2 27 19 38 24 39 22 4z m-158 -52 c-12 -16 -26 -28 -31 -25 -13 8 -10 19 13
48 31 39 48 18 18 -23z m83 -16 c2 -12 -70 -70 -77 -63 -7 7 57 76 68 74 5 -1
9 -6 9 -11z m-241 -15 c-25 -21 -41 -26 -41 -12 0 9 38 30 55 31 6 0 -1 -9
-14 -19z m59 17 c0 -2 -10 -12 -21 -23 -22 -19 -22 -19 -10 4 10 18 31 31 31
19z m50 -25 c0 -10 -45 -32 -65 -32 -7 0 -16 -5 -18 -10 -3 -6 -4 -5 -3 2 1 7
18 21 37 30 38 20 49 22 49 10z"/>
<path d="M2470 4710 l65 -7 -77 1 c-53 1 -79 -3 -82 -11 -7 -18 -1 -19 101
-15 88 3 92 4 83 23 -9 16 -21 19 -83 17 l-72 -2 65 -6z"/>
<path d="M2657 4624 c4 -11 -1 -22 -13 -32 -18 -14 -18 -14 -1 -8 10 3 21 6
23 6 9 0 4 39 -6 45 -6 4 -7 -1 -3 -11z"/>
<path d="M2235 4601 c-3 -5 -2 -12 3 -15 5 -3 9 1 9 9 0 17 -3 19 -12 6z"/>
<path d="M2216 4565 c-3 -9 -6 -22 -5 -28 0 -7 5 -1 10 12 5 13 8 26 5 28 -2
2 -6 -3 -10 -12z"/>
<path d="M2202 4500 c0 -14 2 -19 5 -12 2 6 2 18 0 25 -3 6 -5 1 -5 -13z"/>
<path d="M2672 4460 c0 -14 2 -19 5 -12 2 6 2 18 0 25 -3 6 -5 1 -5 -13z"/>
<path d="M2185 4415 c-4 -31 -5 -58 -3 -61 3 -2 8 21 12 52 4 31 5 59 2 61 -2
3 -8 -21 -11 -52z"/>
<path d="M2663 4395 c0 -22 2 -30 4 -17 2 12 2 30 0 40 -3 9 -5 -1 -4 -23z"/>
<path d="M3020 3880 c0 -21 -76 -93 -190 -179 -73 -56 -121 -100 -128 -118
-17 -43 -32 -106 -31 -128 0 -11 8 12 18 50 9 39 21 78 27 87 5 9 61 57 124
106 63 49 132 108 153 131 29 32 37 37 37 22 0 -14 5 -18 20 -14 30 8 36 24
15 40 -22 15 -45 17 -45 3z"/>
<path d="M2661 3414 c0 -11 3 -14 6 -6 3 7 2 16 -1 19 -3 4 -6 -2 -5 -13z"/>
<path d="M2713 3401 c-28 -11 -53 -17 -55 -15 -2 1 -9 -5 -15 -15 -10 -16 -5
-16 38 5 27 13 55 24 61 24 7 0 20 5 28 10 23 15 0 11 -57 -9z"/>
<path d="M2843 3313 c9 -2 25 -2 35 0 9 3 1 5 -18 5 -19 0 -27 -2 -17 -5z"/>
<path d="M2758 3303 c12 -2 30 -2 40 0 9 3 -1 5 -23 4 -22 0 -30 -2 -17 -4z"/>
<path d="M2693 3293 c9 -2 23 -2 30 0 6 3 -1 5 -18 5 -16 0 -22 -2 -12 -5z"/>
<path d="M2633 3283 c9 -2 23 -2 30 0 6 3 -1 5 -18 5 -16 0 -22 -2 -12 -5z"/>
<path d="M2988 3283 c25 -5 30 -23 6 -23 -13 0 -14 -3 -4 -15 7 -8 10 -25 7
-36 -3 -12 -2 -18 3 -13 4 5 10 27 12 49 3 37 1 40 -22 42 -22 1 -22 1 -2 -4z"/>
<path d="M2588 3273 c7 -3 16 -2 19 1 4 3 -2 6 -13 5 -11 0 -14 -3 -6 -6z"/>
<path d="M2920 3255 c0 -8 2 -15 4 -15 2 0 6 7 10 15 3 8 1 15 -4 15 -6 0 -10
-7 -10 -15z"/>
<path d="M3261 3034 c0 -11 3 -14 6 -6 3 7 2 16 -1 19 -3 4 -6 -2 -5 -13z"/>
<path d="M3020 2914 c-58 -41 -124 -94 -147 -118 -36 -38 -43 -51 -42 -83 l2
-38 6 42 c9 55 24 70 157 164 94 66 148 111 133 108 -2 0 -51 -34 -109 -75z"/>
<path d="M3095 2929 c-27 -22 -81 -60 -120 -86 -110 -72 -125 -90 -125 -140 0
-54 31 -79 84 -69 44 8 206 132 218 166 7 20 2 17 -23 -14 -65 -78 -227 -161
-241 -124 -4 10 2 13 26 10 59 -7 113 77 74 116 -12 12 -16 8 111 107 35 28
66 56 69 63 7 22 -22 11 -73 -29z m-141 -155 c21 -8 20 -48 -1 -65 -15 -13
-15 -12 -2 8 16 26 1 50 -25 40 -19 -8 -21 -43 -3 -50 6 -2 9 -8 5 -12 -10
-11 -38 14 -38 33 0 16 28 52 41 52 4 0 14 -3 23 -6z"/>
<path d="M2920 2559 c-22 -18 -22 -19 -3 -10 12 6 25 16 28 21 9 15 3 12 -25
-11z"/>
<path d="M2109 3803 c-34 -55 -62 -142 -56 -175 4 -21 4 -21 6 3 2 39 39 139
66 181 14 21 23 38 20 38 -3 0 -19 -21 -36 -47z"/>
<path d="M2043 3560 c0 -25 2 -35 4 -22 2 12 2 32 0 45 -2 12 -4 2 -4 -23z"/>
<path d="M2033 3475 c0 -22 2 -30 4 -17 2 12 2 30 0 40 -3 9 -5 -1 -4 -23z"/>
<path d="M2048 3293 c7 -3 16 -2 19 1 4 3 -2 6 -13 5 -11 0 -14 -3 -6 -6z"/>
<path d="M2088 3283 c6 -2 18 -2 25 0 6 3 1 5 -13 5 -14 0 -19 -2 -12 -5z"/>
<path d="M2138 3273 c7 -3 16 -2 19 1 4 3 -2 6 -13 5 -11 0 -14 -3 -6 -6z"/>
<path d="M1845 3230 c-3 -6 1 -7 9 -4 18 7 21 14 7 14 -6 0 -13 -4 -16 -10z"/>
<path d="M1770 3130 c29 -33 57 -63 64 -67 6 -4 -15 23 -48 60 -32 37 -61 67
-63 67 -3 0 18 -27 47 -60z"/>
<path d="M1690 2975 c0 -8 117 -162 129 -169 5 -3 7 -23 4 -45 -7 -55 28 -102
79 -106 3 0 10 -4 15 -9 5 -5 -2 -7 -15 -3 -19 4 -21 3 -11 -9 14 -17 35 -18
44 -3 4 6 4 31 0 56 -5 34 -9 43 -16 32 -7 -10 -8 -6 -4 12 5 20 -2 35 -39 76
-51 56 -186 179 -186 168z m196 -186 c19 -32 -55 28 -106 86 -44 49 -44 49 28
-14 40 -35 75 -67 78 -72z m-14 -34 c0 -5 -5 -11 -11 -13 -6 -2 -11 4 -11 13
0 9 5 15 11 13 6 -2 11 -8 11 -13z m18 -59 c0 -11 -19 -15 -25 -6 -3 5 1 10 9
10 9 0 16 -2 16 -4z"/>
<path d="M3675 3320 c21 -24 26 -25 19 -6 -3 8 -13 17 -22 21 -13 5 -13 2 3
-15z"/>
<path d="M4019 3234 c23 -41 41 -77 41 -80 0 -2 -25 8 -57 21 -31 14 -58 24
-60 22 -5 -5 95 -50 112 -50 8 0 15 -3 15 -6 0 -4 10 -12 23 -20 l22 -14 -22
24 c-12 13 -40 59 -63 102 -23 42 -44 77 -47 77 -2 0 14 -34 36 -76z"/>
<path d="M4150 3131 c5 -11 15 -23 21 -27 6 -3 3 5 -6 20 -20 30 -30 35 -15 7z"/>
<path d="M4198 3093 c7 -3 16 -2 19 1 4 3 -2 6 -13 5 -11 0 -14 -3 -6 -6z"/>
<path d="M2441 3084 c0 -11 3 -14 6 -6 3 7 2 16 -1 19 -3 4 -6 -2 -5 -13z"/>
<path d="M2431 3044 c0 -11 3 -14 6 -6 3 7 2 16 -1 19 -3 4 -6 -2 -5 -13z"/>
<path d="M3531 2834 c0 -11 3 -14 6 -6 3 7 2 16 -1 19 -3 4 -6 -2 -5 -13z"/>
<path d="M3982 2900 c0 -8 4 -26 8 -40 6 -20 8 -21 8 -5 0 11 -3 29 -8 40 -5
12 -8 14 -8 5z"/>
<path d="M4000 2819 c1 -25 58 -275 59 -257 1 10 -11 73 -25 140 -24 115 -34
151 -34 117z"/>
<path d="M4062 2520 c0 -14 2 -19 5 -12 2 6 2 18 0 25 -3 6 -5 1 -5 -13z"/>
<path d="M1546 2465 c-3 -9 -5 -29 -5 -43 1 -20 3 -17 9 13 8 43 7 57 -4 30z"/>
<path d="M3322 2720 c0 -14 2 -19 5 -12 2 6 2 18 0 25 -3 6 -5 1 -5 -13z"/>
<path d="M3153 2378 c2 -7 12 -12 22 -10 12 2 15 -1 10 -10 -6 -10 -5 -10 5
-1 7 6 9 16 6 22 -10 15 -49 14 -43 -1z"/>
<path d="M2281 1854 c0 -11 3 -14 6 -6 3 7 2 16 -1 19 -3 4 -6 -2 -5 -13z"/>
<path d="M1228 1903 c7 -3 16 -2 19 1 4 3 -2 6 -13 5 -11 0 -14 -3 -6 -6z"/>
<path d="M4140 1668 c-20 -54 -23 -86 -26 -223 l-2 -160 8 134 c9 150 14 185
37 254 23 72 9 68 -17 -5z"/>
<path d="M4008 1535 c-4 -22 -7 -112 -7 -200 1 -146 2 -153 10 -85 11 92 8
346 -3 285z"/>
<path d="M3923 1480 c0 -25 2 -35 4 -22 2 12 2 32 0 45 -2 12 -4 2 -4 -23z"/>
<path d="M3963 1310 c0 -36 2 -50 4 -32 2 17 2 47 0 65 -2 17 -4 3 -4 -33z"/>
<path d="M3933 1235 c0 -44 2 -61 4 -37 2 23 2 59 0 80 -2 20 -4 1 -4 -43z"/>
<path d="M911 1624 c0 -11 3 -14 6 -6 3 7 2 16 -1 19 -3 4 -6 -2 -5 -13z"/>
<path d="M902 1560 c0 -19 2 -27 5 -17 2 9 2 25 0 35 -3 9 -5 1 -5 -18z"/>
<path d="M1054 1558 l-29 -33 33 29 c30 28 37 36 29 36 -2 0 -16 -15 -33 -32z"/>
<path d="M885 1455 c-4 -37 -5 -69 -2 -71 2 -3 8 25 12 61 4 37 5 69 2 71 -2
3 -8 -25 -12 -61z"/>
<path d="M872 1350 c0 -14 2 -19 5 -12 2 6 2 18 0 25 -3 6 -5 1 -5 -13z"/>
<path d="M2418 1223 c18 -2 45 -2 60 0 15 2 0 4 -33 4 -33 0 -45 -2 -27 -4z"/>
<path d="M3402 920 c0 -19 2 -27 5 -17 2 9 2 25 0 35 -3 9 -5 1 -5 -18z"/>
<path d="M3792 540 c0 -14 2 -19 5 -12 2 6 2 18 0 25 -3 6 -5 1 -5 -13z"/>
<path d="M4010 501 c0 -5 7 -12 16 -15 14 -5 15 -4 4 9 -14 17 -20 19 -20 6z"/>
<path d="M3766 435 c-3 -9 -6 -31 -5 -48 l0 -32 15 39 c8 23 11 43 5 49 -5 5
-11 1 -15 -8z"/>
<path d="M3269 1323 c-13 -16 -12 -17 3 -5 23 18 32 11 48 -38 7 -23 17 -43
21 -46 11 -6 -18 75 -32 93 -15 17 -24 16 -40 -4z"/>
<path d="M3245 1289 c-4 -6 -5 -12 -2 -15 2 -3 7 2 10 11 7 17 1 20 -8 4z"/>
<path d="M3226 1245 c-9 -26 -7 -32 5 -12 6 10 9 21 6 23 -2 3 -7 -2 -11 -11z"/>
<path d="M3141 1101 c-12 -16 -34 -57 -51 -92 -30 -63 -30 -66 -29 -224 1 -88
5 -205 9 -260 4 -56 5 13 2 156 l-5 256 31 67 c17 37 41 80 52 97 12 16 19 29
16 29 -2 0 -14 -13 -25 -29z"/>
<path d="M1746 965 c-4 -18 -4 -46 -1 -62 5 -20 4 -24 -3 -14 -13 18 -27 -324
-16 -376 6 -28 10 5 15 132 6 165 23 309 40 336 6 11 27 6 100 -24 50 -21 93
-36 96 -34 7 8 -153 69 -188 73 -35 3 -37 2 -43 -31z m11 -27 c-3 -8 -6 -5 -6
6 -1 11 2 17 5 13 3 -3 4 -12 1 -19z"/>
<path d="M1551 904 c0 -11 3 -14 6 -6 3 7 2 16 -1 19 -3 4 -6 -2 -5 -13z"/>
<path d="M1653 875 c0 -22 2 -30 4 -17 2 12 2 30 0 40 -3 9 -5 -1 -4 -23z"/>
<path d="M2897 883 c-48 -14 -86 -27 -84 -29 5 -6 137 26 161 38 25 13 39 -3
30 -36 -6 -24 -10 -27 -33 -21 -24 6 -25 5 -10 -10 11 -11 24 -15 38 -10 19 6
22 13 19 48 -2 28 -8 42 -18 43 -8 1 -55 -9 -103 -23z"/>
<path d="M3288 857 c-3 -19 -2 -25 4 -19 6 6 8 18 6 28 -3 14 -5 12 -10 -9z"/>
<path d="M3204 695 c0 -77 2 -107 3 -67 2 40 2 103 0 140 -2 37 -3 4 -3 -73z"/>
<path d="M1646 545 c6 -398 14 -536 31 -542 8 -3 15 -4 17 -2 2 2 0 105 -3
229 -4 124 -6 226 -5 227 0 2 19 -11 42 -28 l42 -31 1 -151 c0 -84 4 -174 9
-202 5 -31 7 22 4 140 -3 105 -7 199 -9 210 -2 11 -25 33 -50 49 -26 16 -52
41 -58 55 -6 14 -14 89 -18 166 -4 91 -5 49 -3 -120z"/>
<path d="M2773 745 c0 -38 2 -53 4 -32 2 20 2 52 0 70 -2 17 -4 1 -4 -38z"/>
<path d="M1964 625 c0 -49 1 -71 3 -48 2 23 2 64 0 90 -2 26 -3 8 -3 -42z"/>
<path d="M2782 645 c0 -16 4 -43 8 -60 11 -42 11 -1 1 50 -7 34 -9 35 -9 10z"/>
<path d="M1990 538 c0 -9 -4 -18 -9 -20 -12 -4 -43 -385 -39 -463 l4 -60 2 71
c3 103 31 393 43 438 6 21 8 41 5 44 -3 3 -6 -2 -6 -10z"/>
<path d="M2802 530 c0 -14 2 -19 5 -12 2 6 2 18 0 25 -3 6 -5 1 -5 -13z"/>
<path d="M3214 465 c0 -49 1 -71 3 -48 2 23 2 64 0 90 -2 26 -3 8 -3 -42z"/>
<path d="M2816 455 c3 -27 12 -79 19 -115 12 -57 13 -59 9 -15 -3 28 -12 79
-19 115 -12 57 -13 59 -9 15z"/>
<path d="M3082 395 c0 -16 2 -22 5 -12 2 9 2 23 0 30 -3 6 -5 -1 -5 -18z"/>
<path d="M3223 290 c0 -41 3 -124 7 -185 l7 -110 0 85 c0 47 -3 130 -7 185 -6
96 -7 97 -7 25z"/>
<path d="M1562 245 c0 -16 2 -22 5 -12 2 9 2 23 0 30 -3 6 -5 -1 -5 -18z"/>
<path d="M2854 220 c13 -110 30 -210 34 -206 5 6 -29 249 -36 256 -2 3 -2 -20
2 -50z"/>
<path d="M1574 100 c0 -58 1 -81 3 -53 2 29 2 77 0 105 -2 29 -3 6 -3 -52z"/>
</g>
</svg>