<?xml version="1.0" standalone="no"?>
<!DOCTYPE svg PUBLIC "-//W3C//DTD SVG 20010904//EN"
 "http://www.w3.org/TR/2001/REC-SVG-20010904/DTD/svg10.dtd">
<svg version="1.0" xmlns="http://www.w3.org/2000/svg"
 width="512.000000pt" height="512.000000pt" viewBox="0 0 512.000000 512.000000"
 preserveAspectRatio="xMidYMid meet">
<metadata>
Created by potrace 1.16, written by Peter Selinger 2001-2019
</metadata>
<g transform="translate(0.000000,512.000000) scale(0.100000,-0.100000)"
fill="#000000" stroke="none">
<path d="M2829 4748 c-1 -18 0 -59 1 -90 1 -31 -5 -81 -14 -110 -8 -29 -15
-75 -16 -103 -1 -66 -17 -199 -19 -158 -1 28 -9 38 -63 73 l-63 40 -146 0
c-132 0 -203 -10 -219 -30 -3 -3 -20 -16 -37 -29 -29 -19 -33 -28 -33 -66 0
-39 -4 -45 -37 -67 -37 -24 -76 -46 -103 -58 -12 -6 -16 -33 -18 -138 l-3
-131 27 -18 c14 -10 40 -29 57 -43 18 -14 44 -31 60 -38 19 -8 27 -19 27 -36
0 -16 13 -35 40 -56 52 -41 54 -70 4 -70 -23 0 -41 6 -49 16 -17 24 -75 13
-210 -39 -87 -34 -111 -47 -113 -64 -2 -13 -17 -26 -43 -36 l-39 -15 0 -96 0
-96 -35 0 c-29 0 -35 4 -35 21 0 11 -16 35 -36 52 -22 19 -50 61 -70 105 -30
65 -36 73 -56 66 -59 -19 -334 -135 -344 -146 -27 -27 -127 -420 -140 -547 -7
-60 -7 -60 25 -78 37 -21 38 -33 10 -107 -21 -54 -21 -57 -4 -76 10 -11 26
-22 35 -25 14 -5 35 -62 26 -72 -1 -2 -16 1 -33 6 -27 8 -37 4 -79 -28 -28
-21 -60 -58 -75 -85 -50 -92 -79 -288 -79 -537 0 -113 -4 -168 -15 -199 -18
-51 -19 -98 -4 -137 7 -15 11 -42 10 -59 -2 -23 6 -41 27 -65 41 -48 82 -115
82 -136 0 -10 17 -29 38 -43 20 -13 54 -38 76 -55 41 -32 41 -32 163 -40 78
-5 81 -4 76 15 -4 15 -14 20 -39 20 -18 0 -36 5 -39 10 -10 16 21 23 45 10 18
-10 31 -8 66 5 43 16 60 44 29 46 -18 2 -25 4 -47 13 -9 4 -32 -1 -55 -12 -29
-15 -44 -17 -65 -10 -16 5 -28 16 -28 23 0 8 -18 34 -39 59 -79 91 -89 216
-22 251 28 14 30 14 65 -25 20 -22 36 -47 36 -55 0 -21 48 -92 67 -99 22 -9
43 12 43 43 0 34 -24 102 -53 149 -12 20 -28 59 -35 85 -10 40 -10 52 3 76 25
49 133 343 148 406 35 137 32 164 -20 212 -33 32 -29 42 16 36 37 -5 41 -3 61
28 48 77 141 281 172 376 23 70 38 103 51 106 10 3 17 15 17 28 0 21 1 21 18
6 10 -10 24 -17 30 -17 12 0 18 -16 27 -80 9 -61 60 -258 78 -303 9 -19 27
-43 41 -52 25 -17 29 -16 81 5 31 13 58 20 61 17 3 -3 8 -42 11 -87 6 -86 21
-110 69 -110 12 0 27 -7 34 -15 11 -13 4 -15 -53 -15 -59 0 -68 -3 -86 -26
-25 -32 -28 -111 -6 -154 18 -34 8 -40 -61 -40 l-44 0 -1 -227 c-1 -166 -4
-217 -10 -188 -6 22 -8 124 -7 228 2 121 -1 186 -7 184 -5 -2 -11 -23 -12 -48
-2 -24 -5 -72 -9 -106 -5 -61 -6 -62 -37 -65 l-32 -3 0 -175 0 -175 29 -3 c16
-2 32 1 36 8 5 8 16 6 38 -7 31 -18 32 -20 32 -91 0 -46 -4 -71 -10 -67 -5 3
-10 18 -10 33 -1 69 -52 67 -58 -2 -2 -28 -9 -39 -26 -46 -13 -5 -26 -18 -29
-29 -3 -12 -21 -28 -40 -36 -40 -17 -47 -41 -47 -170 0 -122 11 -145 52 -108
17 15 18 15 18 -8 0 -58 9 -69 59 -70 25 -1 35 -3 21 -6 -63 -10 -67 -13 -94
-73 -15 -33 -32 -87 -38 -120 -9 -55 -13 -62 -44 -75 -28 -12 -35 -21 -49 -72
-8 -32 -19 -73 -24 -90 -11 -38 -4 -40 41 -14 18 10 44 22 57 26 22 7 23 5 17
-19 -6 -24 -4 -26 28 -26 39 0 33 -14 71 190 8 46 19 88 24 93 10 10 276 5
287 -5 4 -4 0 -67 -8 -140 -9 -73 -15 -134 -13 -136 1 -1 53 1 116 4 l114 7
-5 74 c-4 57 -9 77 -23 84 -11 6 -17 22 -17 43 0 18 -18 81 -40 139 -44 118
-46 164 -7 163 22 -1 22 2 25 152 2 139 1 153 -15 158 -76 25 -71 17 -75 119
l-3 94 29 5 c53 11 56 18 56 152 0 116 -1 124 -22 138 -12 9 -32 16 -44 16
-16 0 -23 8 -28 32 -3 17 -4 33 -2 35 2 3 24 -8 47 -23 24 -15 55 -27 68 -28
21 -1 29 -11 47 -59 34 -87 34 -87 135 -87 101 0 99 -2 138 107 20 55 26 62
54 66 18 3 43 8 56 12 42 14 21 -28 -26 -49 -23 -11 -46 -30 -52 -43 -6 -13
-11 -73 -11 -134 0 -107 1 -110 25 -121 24 -11 25 -15 25 -93 l0 -81 -35 -13
c-19 -7 -40 -21 -46 -32 -6 -13 -9 -77 -7 -170 3 -135 5 -152 22 -165 26 -18
34 -18 39 4 3 9 5 2 6 -15 0 -18 -15 -74 -35 -125 -20 -51 -39 -115 -43 -143
-5 -42 -10 -50 -29 -53 -28 -4 -29 -7 -36 -99 l-6 -73 89 0 90 0 12 75 c6 41
15 73 19 70 4 -2 10 -29 14 -59 8 -69 14 -86 33 -86 18 0 15 30 -14 182 -9 49
-13 91 -9 95 4 5 72 9 151 11 135 3 144 2 154 -17 6 -11 21 -76 34 -145 l22
-126 39 0 c31 0 37 3 28 12 -7 7 -12 18 -12 26 0 8 11 4 33 -12 19 -15 47 -26
64 -26 l31 0 -15 68 c-21 93 -33 114 -73 127 -32 11 -36 16 -44 61 -4 27 -20
81 -35 119 -23 62 -30 71 -61 82 l-35 11 35 4 c32 3 35 6 46 53 10 42 13 46
19 27 4 -12 13 -22 20 -22 30 0 38 32 43 162 4 116 3 133 -13 144 -9 7 -22 11
-28 9 -57 -17 -66 -15 -69 12 -2 20 -9 29 -25 31 -19 3 -23 10 -23 41 0 57
-35 84 -43 34 -2 -16 -5 0 -6 35 -1 66 0 68 30 51 29 -15 66 12 78 58 6 21 11
95 11 164 0 131 -6 154 -45 161 -14 2 -22 13 -25 38 l-6 35 -7 -29 c-5 -16 -5
-70 -2 -120 5 -65 3 -87 -4 -76 -6 9 -11 78 -11 172 0 86 -3 163 -6 172 -4 12
-20 16 -54 16 -75 0 -82 5 -59 43 36 61 16 160 -37 173 -14 4 -41 4 -60 1 -18
-3 -34 -2 -34 2 0 15 25 31 50 31 34 0 60 28 60 66 0 32 27 134 36 134 3 0 22
-9 44 -20 65 -33 88 -25 122 45 19 37 75 261 84 333 5 36 11 52 19 48 7 -2 22
2 33 10 20 13 21 12 36 -39 17 -60 140 -313 182 -376 22 -35 32 -41 60 -41 35
0 48 -22 20 -33 -27 -11 -37 -75 -21 -142 31 -133 184 -503 221 -531 11 -9 10
-19 -7 -65 -12 -30 -26 -63 -31 -73 -19 -37 -31 -82 -44 -163 -5 -35 -4 -44
11 -49 22 -9 61 33 72 74 13 52 44 112 63 122 14 7 26 7 39 0 31 -16 50 -95
28 -116 -4 -4 -7 -16 -7 -27 0 -63 -139 -235 -181 -224 -28 8 -69 -9 -69 -27
0 -10 6 -13 15 -10 20 8 65 -4 65 -16 0 -6 -13 -10 -29 -10 -34 0 -50 -18 -30
-31 8 -5 37 -9 64 -9 28 0 60 0 72 0 33 0 131 36 174 64 37 25 83 84 121 159
11 23 29 53 40 67 17 24 18 29 4 61 -15 36 -15 36 16 59 30 22 30 24 26 85 -3
35 -16 87 -30 116 -19 43 -24 73 -26 144 -8 335 -52 540 -139 636 -39 43 -51
46 -112 24 -38 -13 -42 -13 -50 4 -8 14 -3 25 24 51 19 19 35 40 35 48 0 8
-10 45 -21 84 l-21 70 36 37 37 38 -36 149 c-45 189 -102 365 -124 384 -10 8
-88 44 -175 79 -118 47 -161 60 -169 52 -7 -6 -25 -40 -42 -74 -18 -38 -40
-67 -55 -74 -17 -8 -27 -23 -30 -45 -4 -25 -11 -34 -27 -36 -22 -3 -23 -1 -23
86 0 96 -3 102 -55 119 -21 7 -31 17 -33 35 -2 17 -14 30 -38 41 -19 10 -39
17 -45 17 -6 0 -29 8 -52 19 -23 10 -66 25 -96 32 -50 12 -54 12 -70 -6 -13
-16 -26 -19 -63 -17 -60 4 -61 18 -8 71 26 26 40 48 40 65 0 19 6 27 25 32 14
3 33 16 43 29 10 12 32 30 50 39 l33 17 -3 141 -3 142 -27 7 c-15 4 -45 22
-67 40 -36 31 -38 35 -20 41 17 7 19 18 20 100 2 208 6 306 13 371 7 58 6 67
-8 67 -11 0 -16 -10 -17 -32z m-3 -286 c-13 -12 -17 8 -10 40 l9 33 3 -33 c2
-19 1 -36 -2 -40z m-216 -82 c0 -6 -42 -10 -106 -10 -67 0 -103 -4 -99 -10 3
-6 50 -10 106 -10 l99 0 -6 -57 c-12 -103 -12 -103 -104 -103 -44 0 -80 1 -80
3 0 1 -7 40 -15 87 -8 47 -15 91 -15 98 0 9 29 12 110 12 67 0 110 -4 110 -10z
m-240 -7 c0 -22 29 -184 35 -193 3 -6 46 -10 100 -10 74 0 94 3 99 15 3 9 11
56 17 106 10 74 15 89 28 87 13 -3 17 -20 19 -96 2 -52 -2 -101 -8 -112 -6
-11 -7 -20 -2 -20 15 0 22 39 22 123 0 42 3 77 8 77 10 0 55 -31 64 -44 5 -6
8 -129 7 -272 l-1 -261 -36 -35 c-76 -70 -72 -72 -72 30 l0 90 51 32 c28 17
49 33 46 36 -3 3 -27 -9 -55 -26 -47 -29 -50 -33 -54 -81 -3 -28 -12 -55 -19
-60 -8 -5 -62 -9 -120 -9 l-106 0 -7 49 c-6 49 -8 50 -74 88 l-67 39 -3 189
c-3 184 -2 191 19 208 12 9 25 17 29 17 4 0 11 -28 15 -62 8 -70 28 -128 45
-128 6 0 4 9 -5 23 -8 12 -19 54 -25 92 -15 109 -18 103 43 114 4 0 7 -2 7 -6z
m-150 -364 c0 -186 -1 -200 -17 -197 -16 3 -18 21 -21 187 -2 166 -1 185 15
197 10 7 19 14 21 14 1 0 2 -90 2 -201z m620 76 c0 -51 -3 -133 -6 -183 -6
-77 -10 -91 -25 -95 -16 -4 -19 1 -19 38 0 24 5 47 11 51 9 5 10 51 6 161 -5
152 -5 154 14 137 16 -14 19 -31 19 -109z m-696 49 c8 -20 7 -106 -2 -164 -5
-34 -12 -45 -27 -47 l-20 -3 20 9 c19 8 18 9 -5 12 -24 4 -25 6 -28 101 -3 94
-2 97 20 101 13 2 26 5 29 6 4 0 10 -6 13 -15z m776 -95 c0 -55 -4 -99 -9 -99
-6 0 -12 15 -14 33 -4 31 -4 31 -5 -5 -1 -21 -6 -38 -12 -38 -6 0 -10 43 -10
109 l0 108 25 -5 c25 -4 25 -6 25 -103z m-546 -262 c12 -87 2 -98 -50 -56 -21
17 -46 36 -55 43 -11 8 -19 34 -24 80 l-8 68 64 -33 64 -34 9 -68z m256 -64
c0 -16 -12 -18 -119 -18 -110 0 -118 1 -110 18 8 15 25 17 119 17 98 0 110 -2
110 -17z m-403 -250 c12 -92 21 -168 20 -170 -3 -3 -107 24 -112 29 -6 5 -25
195 -25 243 0 49 15 63 70 64 25 1 25 0 47 -166z m133 147 c0 -5 -7 -10 -15
-10 -8 0 -15 5 -15 10 0 6 7 10 15 10 8 0 15 -4 15 -10z m563 -1 l39 -10 -6
-57 c-3 -31 -8 -86 -11 -122 -3 -36 -9 -71 -13 -77 -4 -6 -31 -20 -61 -32
l-53 -20 5 32 c3 18 11 82 17 142 18 173 13 164 83 144z m-819 -236 c3 -24 1
-43 -4 -43 -5 0 -28 22 -51 49 -39 46 -44 48 -76 41 -46 -11 -54 -21 -11 -14
32 6 37 3 56 -29 29 -50 57 -65 179 -98 104 -28 116 -29 336 -29 l227 0 112
36 c105 34 116 40 171 95 l59 60 37 -18 c29 -14 37 -24 39 -51 3 -27 -1 -34
-22 -42 -25 -9 -26 -12 -26 -102 0 -51 -3 -116 -6 -143 l-6 -51 -117 -71
c-132 -80 -161 -112 -161 -180 0 -51 14 -82 64 -142 29 -35 36 -51 36 -86 0
-48 -9 -55 -70 -55 -41 0 -66 22 -129 113 -29 43 -31 51 -31 136 0 131 0 131
-184 131 -180 0 -176 3 -176 -123 l0 -92 -76 -83 c-73 -79 -77 -82 -120 -82
-39 0 -46 3 -54 26 -16 41 -13 50 43 111 30 32 59 68 65 80 17 32 15 111 -4
142 -20 34 -33 43 -169 111 l-110 56 -5 147 c-4 131 -7 148 -25 161 -11 9 -23
16 -27 16 -18 0 -6 18 25 34 17 9 23 14 12 10 -52 -17 -55 -17 -55 4 0 17 11
24 52 37 28 8 69 15 90 15 l39 0 -7 63 -6 62 33 16 34 16 7 -96 c4 -53 9 -115
12 -138z m298 194 c-39 -7 -56 -7 -65 2 -8 8 5 11 54 10 l64 -2 -53 -10z m671
-9 c19 -7 27 -18 27 -34 0 -16 -5 -22 -14 -18 -10 4 -15 -8 -20 -44 -5 -39
-12 -54 -34 -68 -76 -49 -70 -53 -56 29 7 39 13 88 14 108 0 54 7 56 83 27z
m-1063 -6 c0 -11 -16 -26 -45 -40 l-45 -22 0 26 c0 19 8 28 33 39 43 19 57 18
57 -3z m635 -22 c-75 -12 -305 -12 -305 0 0 6 65 10 178 9 125 -1 162 -4 127
-9z m-1029 -70 c39 -128 34 -255 -15 -399 -26 -76 -76 -177 -92 -187 -7 -4
-32 -6 -55 -5 l-43 1 -26 -82 c-14 -46 -28 -104 -32 -130 -5 -40 -9 -47 -34
-52 -17 -3 -40 -22 -62 -50 l-35 -46 -6 31 c-3 18 -6 71 -6 120 l0 88 -42 23
c-42 23 -43 25 -42 73 2 91 89 444 105 428 4 -4 9 -35 10 -68 2 -44 -7 -96
-35 -198 -20 -75 -34 -142 -30 -149 4 -6 25 55 46 138 38 144 39 153 33 261
-7 110 -6 111 17 124 51 28 304 129 317 126 8 -1 20 -22 27 -47z m994 30 c61
-5 44 -7 -92 -8 -107 -1 -168 2 -168 8 0 11 142 11 260 0z m956 -46 c76 -31
144 -61 150 -65 7 -6 9 -44 6 -111 -3 -90 0 -119 27 -230 35 -144 45 -175 53
-162 3 5 -12 72 -33 149 -38 137 -48 232 -30 279 9 22 68 -169 102 -328 l22
-100 -23 -18 c-13 -10 -30 -22 -37 -27 -12 -6 -13 -18 -4 -66 6 -32 11 -73 11
-91 0 -18 5 -36 11 -40 8 -4 9 4 5 27 -5 32 -5 33 5 7 9 -24 7 -32 -18 -63
l-28 -35 -27 57 c-15 32 -63 135 -108 228 -44 94 -80 176 -80 182 0 7 25 27
55 45 30 18 58 41 61 51 3 10 0 50 -6 88 -15 88 -46 127 -135 169 -92 44 -92
36 0 -13 95 -51 112 -76 121 -174 l7 -71 -59 -39 c-52 -34 -59 -43 -57 -68 2
-17 4 -55 7 -85 3 -48 23 -108 80 -243 15 -33 19 -36 37 -26 15 8 24 8 32 0 8
-8 5 -11 -12 -11 -27 0 -169 -57 -193 -78 -11 -9 -18 -29 -18 -51 l0 -36 -26
43 c-33 54 -92 206 -99 252 -5 26 2 17 27 -38 18 -40 34 -69 36 -63 2 5 -10
50 -27 98 -17 49 -33 115 -37 148 l-7 60 58 -110 c32 -60 73 -138 91 -173 23
-42 36 -59 40 -49 3 9 0 25 -6 36 -6 12 -8 26 -5 31 3 6 1 10 -5 10 -6 0 -8 5
-5 10 3 6 1 10 -4 10 -13 0 -94 170 -127 267 -30 90 -50 301 -35 371 16 76 29
102 49 102 11 0 82 -25 158 -56z m-1656 32 c0 -4 -68 -46 -75 -46 -8 0 8 35
19 42 11 8 56 11 56 4z m1250 -11 c17 -9 30 -22 30 -30 0 -13 -7 -12 -40 5
-22 11 -40 25 -40 30 0 14 16 12 50 -5z m-762 -80 l22 -45 105 0 106 0 17 31
c34 61 32 60 101 53 l63 -7 -4 -59 c-2 -32 -9 -63 -14 -68 -7 -7 -108 -11
-263 -13 -214 -2 -253 0 -261 13 -5 8 -10 43 -10 78 l0 62 58 0 58 0 22 -45z
m180 -2 c-26 -2 -71 -2 -100 0 -29 2 -8 3 47 3 55 0 79 -1 53 -3z m-886 -87
c-9 -19 -19 -32 -21 -30 -6 6 21 64 30 64 5 0 1 -15 -9 -34z m199 -131 c4 -83
7 -151 8 -152 0 -2 40 -23 89 -47 48 -25 80 -45 71 -45 -10 -1 -31 -17 -47
-36 -72 -82 -42 -220 55 -248 l45 -13 -36 -32 c-44 -38 -113 -75 -126 -67 -21
13 -87 275 -79 311 1 5 0 20 -4 34 -3 14 -8 121 -11 238 -5 198 -4 213 12 210
15 -3 18 -22 23 -153z m1444 74 c5 -55 4 -84 -4 -92 -6 -6 -11 -44 -11 -85 0
-64 -2 -73 -17 -70 -10 2 -19 12 -21 23 -2 15 -1 17 6 6 18 -26 22 7 12 96 -5
48 -10 114 -10 146 0 49 3 57 19 57 16 0 20 -11 26 -81z m-160 -151 c-6 -184
-10 -226 -24 -242 -9 -11 -10 -16 -3 -12 17 10 16 -5 -18 -142 -26 -106 -42
-154 -56 -171 -6 -7 -99 51 -116 73 -24 29 -22 36 7 36 45 0 74 21 91 66 50
132 -57 252 -145 163 -17 -17 -31 -26 -31 -22 0 17 47 54 151 117 121 74 116
64 118 239 1 99 3 117 17 117 14 0 15 -24 9 -222z m-1355 112 c0 -33 -4 -60
-8 -60 -20 0 -32 28 -32 72 0 41 3 48 20 48 18 0 20 -7 20 -60z m1397 -17 c-2
-16 -4 -3 -4 27 0 30 2 43 4 28 2 -16 2 -40 0 -55z m-1477 -32 c0 -33 -4 -63
-10 -66 -5 -3 -7 -20 -4 -38 3 -25 2 -28 -5 -12 -5 11 -10 55 -10 98 -1 62 2
77 14 77 12 0 15 -13 15 -59z m1547 -78 c-2 -16 -4 -3 -4 27 0 30 2 43 4 28 2
-16 2 -40 0 -55z m-1660 -160 c3 -9 -3 -59 -15 -112 -12 -53 -22 -104 -22
-114 0 -29 16 -19 35 23 10 22 20 38 22 36 3 -3 -21 -63 -52 -134 l-57 -130
-31 35 c-18 20 -54 46 -80 59 -27 12 -43 24 -37 26 6 2 24 49 40 105 32 117
35 123 58 123 28 0 79 36 98 69 21 35 32 39 41 14z m504 -26 c60 -40 74 -97
39 -154 -35 -58 -105 -53 -139 9 -33 57 32 125 79 83 36 -33 17 -92 -27 -83
-22 4 -25 53 -4 53 8 0 16 -6 19 -12 2 -7 -4 -13 -14 -13 -13 0 -15 -3 -7 -11
16 -16 43 -4 43 19 0 48 -74 54 -86 8 -19 -76 95 -106 131 -35 30 58 -7 124
-77 135 -28 5 -40 1 -68 -23 l-35 -28 23 32 c20 28 36 36 78 42 6 0 26 -9 45
-22z m879 -72 c19 -23 7 -76 -22 -98 -51 -38 -120 -11 -117 47 1 20 2 20 6 1
8 -34 34 -55 67 -55 l31 1 -27 20 c-16 11 -28 25 -28 31 0 5 8 2 17 -8 16 -16
18 -15 27 5 10 24 26 28 26 7 0 -8 -8 -17 -17 -20 -13 -5 -14 -9 -4 -19 10 -9
15 -8 27 7 18 26 18 51 -2 70 -20 21 -26 20 -58 -5 -14 -11 -26 -16 -26 -10 0
5 11 18 25 29 26 21 56 19 75 -3z m818 5 c-7 -10 -14 -17 -17 -15 -4 4 18 35
25 35 2 0 -1 -9 -8 -20z m-951 -22 c-3 -8 -6 -5 -6 6 -1 11 2 17 5 13 3 -3 4
-12 1 -19z m-1694 -176 c-8 -40 -9 -42 -27 -29 -19 14 -19 15 5 78 23 62 24
63 27 29 1 -19 -1 -54 -5 -78z m2534 -41 c13 -19 23 -37 23 -41 0 -7 -117 -63
-156 -74 -17 -5 -24 -1 -32 21 -28 73 -29 71 40 103 35 16 72 28 83 27 10 -1
30 -17 42 -36z m-1078 -2 c-9 -18 -8 -20 9 -15 32 11 34 -8 10 -81 l-23 -68
-115 -3 c-63 -1 -120 1 -127 6 -6 4 -17 35 -24 69 -11 54 -11 64 4 87 17 26
19 26 148 26 129 0 130 0 118 -21z m-1235 -29 l66 -29 0 -44 c0 -24 -6 -52
-14 -62 -13 -18 -15 -18 -57 -2 -71 28 -144 71 -146 87 -4 18 52 80 72 80 7 0
43 -13 79 -30z m2591 -135 c18 -38 40 -101 49 -140 15 -68 42 -333 35 -339 -2
-2 -18 3 -35 10 -31 13 -32 16 -44 101 -18 133 -48 275 -60 287 -8 8 -8 3 0
-19 13 -33 63 -345 57 -351 -2 -2 -20 3 -40 11 -72 30 -144 10 -220 -59 l-37
-35 -20 39 c-43 83 -112 274 -124 340 l-7 35 20 -36 c31 -56 42 -62 85 -44 40
17 33 23 65 -58 9 -24 14 -26 30 -17 31 16 38 11 13 -8 l-22 -17 21 -63 c22
-64 25 -68 48 -53 12 7 10 22 -7 92 -12 46 -24 110 -28 141 l-7 57 59 16 c36
10 68 27 83 43 22 24 23 32 17 101 l-6 74 21 -19 c11 -10 35 -50 54 -89z
m-1646 63 c6 -18 7 -28 2 -23 -10 12 -25 55 -18 55 3 0 10 -15 16 -32z m337
-17 c-9 -16 -21 -33 -27 -37 -8 -5 -8 -1 0 14 6 11 16 33 22 49 6 15 13 23 16
16 2 -6 -3 -25 -11 -42z m-1559 -98 c-12 -125 -8 -137 44 -148 40 -9 44 -23
29 -98 -36 -186 -39 -195 -73 -203 -40 -8 -102 -39 -144 -71 l-33 -24 0 33 c0
19 4 38 10 44 12 12 39 264 29 270 -7 4 -14 -34 -30 -170 -7 -61 -7 -55 -3 39
4 103 16 180 44 284 8 32 28 61 71 104 33 33 61 58 63 56 2 -2 -1 -54 -7 -116z
m2613 91 c0 -10 -110 -56 -123 -51 -6 2 13 16 43 30 55 25 80 32 80 21z m65
-111 c-9 -15 -13 -19 -9 -8 3 11 9 43 13 70 l6 50 3 -42 c2 -26 -3 -53 -13
-70z m-1559 65 c14 -28 15 -31 2 -20 -14 11 -31 52 -22 52 2 0 11 -15 20 -32z
m529 -18 c-9 -18 -19 -30 -21 -27 -3 2 3 18 13 35 23 40 29 33 8 -8z m995 15
c0 -14 -67 -55 -90 -55 -24 0 -6 22 38 44 57 30 52 29 52 11z m-2530 1 c0 -2
-7 -20 -16 -41 -9 -23 -13 -49 -9 -69 5 -23 4 -27 -4 -16 -22 32 -7 130 19
130 6 0 10 -2 10 -4z m87 -38 c29 -13 53 -27 53 -31 0 -11 -33 0 -83 29 -53
30 -38 31 30 2z m873 7 c16 -20 -12 -65 -40 -65 -28 0 -48 44 -30 65 16 19 54
19 70 0z m685 -24 c0 -40 -21 -57 -58 -47 -21 5 -27 12 -27 34 0 37 18 54 55
50 27 -3 30 -7 30 -37z m765 -31 c33 -65 34 -70 21 -70 -10 0 -61 97 -61 117
0 24 10 13 40 -47z m120 30 c0 -5 -16 -17 -36 -25 -56 -23 -64 -17 -14 10 53
28 50 28 50 15z m-1112 -21 c-23 -13 -290 -7 -295 6 -2 6 53 9 154 7 109 -2
153 -6 141 -13z m-1367 -10 c16 -11 29 -27 29 -35 0 -12 -8 -10 -40 6 -39 20
-47 30 -33 43 9 10 12 9 44 -14z m929 -9 c0 -5 -7 -10 -16 -10 -8 0 -12 5 -9
10 3 6 10 10 16 10 5 0 9 -4 9 -10z m-855 -40 c-19 -54 -34 -80 -34 -60 -1 17
35 100 43 100 3 0 -1 -18 -9 -40z m1379 6 c-3 -14 -13 -26 -21 -26 -12 0 -11
5 3 30 21 34 28 33 18 -4z m-445 -3 c10 -19 9 -23 -4 -23 -10 0 -15 9 -15 27
0 29 2 29 19 -4z m220 -33 c72 0 111 4 120 13 10 10 11 9 6 -5 -6 -16 -22 -18
-125 -18 -116 0 -119 1 -139 26 -12 15 -21 32 -21 38 0 6 12 -4 26 -21 l25
-33 108 0z m-1209 -5 c0 -8 -54 18 -70 33 -8 8 4 5 28 -7 23 -12 42 -23 42
-26z m840 -76 c0 -43 -3 -50 -17 -47 -14 2 -19 15 -21 51 -3 42 -1 47 17 47
18 0 21 -6 21 -51z m213 -11 l18 -33 -26 30 c-14 17 -31 39 -37 50 -10 19 -10
19 8 3 10 -9 27 -32 37 -50z m324 30 c-23 -33 -71 -86 -60 -68 22 40 66 100
71 96 3 -3 -3 -16 -11 -28z m191 -10 c-2 -31 -8 -44 -20 -46 -15 -3 -18 4 -18
42 0 40 3 46 21 46 18 0 20 -5 17 -42z m-1595 1 c43 -22 109 -29 139 -15 16 7
17 5 2 -46 -9 -29 -35 -102 -59 -163 -35 -87 -45 -105 -51 -88 -3 13 -9 21
-13 18 -4 -2 -30 7 -56 21 -27 13 -55 22 -61 20 -7 -3 -10 3 -8 12 31 159 33
165 49 152 16 -14 35 -5 35 16 0 13 -11 18 -37 15 -7 -1 -11 4 -9 11 3 7 7 25
10 41 8 33 6 32 59 6z m1324 -32 c-24 -31 -27 -32 -110 -35 l-85 -3 -11 32
c-6 18 -11 35 -11 38 0 3 54 5 121 3 l121 -3 -25 -32z m-329 -7 c39 -24 40
-28 5 -23 -61 9 -73 14 -73 28 0 21 29 19 68 -5z m502 7 c0 -11 -70 -40 -78
-33 -4 4 60 46 71 46 4 0 7 -6 7 -13z m-414 -120 c44 -88 43 -87 166 -87 l109
0 17 31 c9 17 23 38 30 47 11 15 12 14 6 -8 -4 -14 -9 -27 -13 -30 -3 -3 -7
-12 -8 -20 -1 -15 -28 -126 -59 -247 l-16 -63 -79 0 -78 0 -12 43 c-6 23 -36
115 -66 205 -50 148 -60 204 -33 187 6 -4 22 -30 36 -58z m297 -13 c-8 -24
-24 -49 -34 -55 -17 -9 -172 -4 -206 6 -12 4 -53 76 -53 92 0 4 69 7 154 5
l154 -3 -15 -45z m-408 20 c35 -17 43 -27 62 -81 l22 -62 -42 29 c-23 15 -68
45 -99 65 -40 25 -58 43 -58 57 0 18 5 20 38 16 20 -3 55 -14 77 -24z m598 20
c14 -14 -17 -46 -90 -95 -41 -28 -73 -45 -70 -38 3 8 11 40 18 71 14 63 4 57
115 66 11 1 24 -1 27 -4z m-718 -137 c0 -86 2 -97 18 -97 15 0 17 -11 17 -85
l0 -85 -100 0 -100 0 0 85 0 85 75 0 75 0 0 39 0 39 -60 -1 c-58 -2 -66 -7
-61 -39 0 -5 -3 -8 -9 -8 -11 0 -14 153 -3 164 4 4 39 5 78 4 l70 -3 0 -98z
m895 11 c0 -51 3 -136 6 -188 l7 -95 -106 3 -106 3 -4 -28 c-2 -15 -5 20 -6
80 -1 79 2 107 12 108 6 1 40 0 74 -1 93 -3 103 3 103 56 0 44 0 44 -35 44
-33 0 -35 2 -35 34 0 26 -5 36 -20 41 -36 11 -21 24 33 28 28 2 58 4 65 5 9 2
12 -22 12 -90z m-140 -13 c0 -46 -4 -87 -10 -90 -6 -4 -10 28 -10 90 0 62 4
94 10 90 6 -3 10 -44 10 -90z m1062 59 c41 -14 46 -19 50 -50 l4 -34 -48 0
c-61 0 -134 -24 -179 -60 l-36 -29 -19 41 -18 41 34 29 c38 33 125 78 151 78
8 0 36 -7 61 -16z m116 -47 c6 -5 12 -28 12 -50 l0 -41 -30 29 c-35 33 -44 89
-12 78 9 -3 23 -10 30 -16z m-2831 -42 c73 -37 78 -46 63 -100 l-13 -46 -21
20 c-35 33 -91 51 -156 51 -66 0 -90 -9 -132 -48 l-28 -26 0 35 c0 42 21 65
100 108 69 38 119 40 187 6z m950 -247 c-2 -35 -3 -7 -3 62 0 69 1 97 3 63 2
-35 2 -91 0 -125z m1848 172 c4 -6 -3 -29 -14 -51 -25 -47 -25 -50 -8 -74 13
-16 14 -16 10 11 -2 16 3 46 12 68 16 38 16 38 37 20 31 -29 59 -102 63 -167
3 -62 -5 -77 -26 -50 -12 14 -12 16 1 8 9 -5 12 -5 7 1 -5 5 -12 9 -16 9 -18
0 -151 130 -151 147 0 10 7 34 14 53 12 27 21 35 40 35 14 0 28 -5 31 -10z
m-102 -80 c-4 -5 -25 -12 -45 -15 l-38 -7 0 36 c0 29 4 37 23 40 59 13 62 12
65 -18 2 -15 0 -32 -5 -36z m-2029 -82 c-4 -68 -8 -124 -9 -126 -1 -1 -10 0
-19 4 -13 5 -16 23 -16 115 0 92 3 109 18 118 9 6 20 11 24 11 4 0 5 -55 2
-122z m1918 90 c-5 -5 -20 -8 -33 -6 -24 3 -23 4 6 20 30 16 48 7 27 -14z
m-2734 -21 l31 -44 -57 -39 c-32 -22 -66 -56 -79 -79 -24 -43 -56 -54 -61 -20
-2 18 -2 18 8 3 14 -22 26 -23 34 -1 8 19 -30 60 -37 40 -3 -7 -6 2 -6 18 -1
64 71 165 118 165 10 0 32 -20 49 -43z m2050 -27 c4 -87 -9 -144 -32 -148 -14
-3 -17 0 -12 13 3 9 6 59 6 112 0 85 2 94 18 91 14 -3 18 -16 20 -68z m-1983
22 c-3 -7 -5 -23 -5 -35 -1 -22 -1 -22 -16 -2 -9 11 -22 32 -29 46 l-14 27 35
-11 c23 -7 33 -15 29 -25z m2666 -2 c18 -10 17 -13 -18 -55 -20 -25 -43 -45
-50 -45 -19 0 -16 41 7 78 21 34 30 38 61 22z m-2552 -31 c40 -40 39 -55 -5
-74 -20 -8 -38 -15 -39 -15 -11 0 -45 72 -45 94 0 39 48 36 89 -5z m977 -101
l-5 -48 24 16 c13 8 26 23 29 32 2 9 4 -3 3 -28 -2 -42 -4 -45 -37 -51 -19 -4
-35 -7 -36 -6 0 1 1 47 4 102 4 86 6 95 15 65 5 -19 7 -56 3 -82z m533 5 c1
-50 -2 -63 -14 -63 -17 0 -18 4 -15 85 4 109 28 90 29 -22z m1151 41 c0 -7 -6
-14 -13 -17 -10 -4 -12 3 -9 25 3 21 7 26 13 17 5 -8 9 -19 9 -25z m79 -38
c12 -18 21 -47 21 -65 0 -28 -3 -31 -30 -31 -30 0 -30 0 -30 58 0 50 5 72 16
72 1 0 12 -15 23 -34z m-259 -1 c0 -9 -9 -15 -21 -15 -18 0 -19 2 -9 15 7 8
16 15 21 15 5 0 9 -7 9 -15z m-2659 -31 c-9 -28 -9 -29 -10 -3 -1 14 2 29 6
32 11 12 13 2 4 -29z m225 15 c16 -17 16 -22 4 -29 -21 -14 -36 -12 -50 5 -14
17 -6 45 13 45 8 0 22 -9 33 -21z m2619 2 c3 -5 1 -12 -5 -16 -5 -3 -10 1 -10
9 0 18 6 21 15 7z m-1800 -11 c-7 -11 -135 -10 -135 1 0 5 32 9 71 9 42 0 68
-4 64 -10z m798 3 c-7 -2 -19 -2 -25 0 -7 3 -2 5 12 5 14 0 19 -2 13 -5z m74
1 c-3 -3 -12 -4 -19 -1 -8 3 -5 6 6 6 11 1 17 -2 13 -5z m-1964 -46 c-4 -30
-14 -50 -32 -65 -32 -28 -38 -28 -46 -3 -5 15 3 33 30 65 20 25 40 45 45 45 4
0 6 -19 3 -42z m2687 2 c0 -12 -5 -17 -14 -14 -8 3 -12 13 -9 25 6 23 23 15
23 -11z m-1690 -100 c0 -113 -1 -120 -20 -120 -19 0 -20 7 -20 120 0 113 1
120 20 120 19 0 20 -7 20 -120z m68 93 c-2 -17 -10 -29 -20 -31 -14 -3 -18 3
-18 27 0 25 4 31 21 31 16 0 20 -5 17 -27z m31 -110 c1 -57 -3 -103 -8 -103
-10 0 -19 151 -12 210 7 66 20 1 20 -107z m800 50 c0 -49 -3 -82 -6 -75 -2 6
-10 12 -17 12 -13 0 -26 61 -26 121 0 24 4 29 25 29 25 0 25 -1 24 -87z m69
-31 c2 -95 0 -112 -13 -112 -13 0 -15 18 -15 116 0 88 3 115 13 112 8 -3 13
-38 15 -116z m-138 -13 c0 -66 -4 -109 -10 -109 -6 0 -10 45 -10 116 0 74 4
113 10 109 6 -4 10 -53 10 -116z m1070 111 c0 -5 -4 -10 -10 -10 -5 0 -10 5
-10 10 0 6 5 10 10 10 6 0 10 -4 10 -10z m-2590 -8 c0 -4 -9 -13 -20 -20 -16
-10 -20 -10 -20 1 0 8 3 17 7 20 9 9 33 9 33 -1z m817 -159 c-2 -32 -3 -8 -3
52 0 61 1 87 3 58 2 -29 2 -78 0 -110z m661 49 c1 -58 -1 -102 -7 -102 -16 0
-21 29 -21 122 0 67 3 89 13 86 8 -3 13 -36 15 -106z m-1730 63 c-9 -9 -30 14
-23 25 6 9 10 8 17 -4 6 -10 8 -19 6 -21z m29 13 c-3 -8 -6 -5 -6 6 -1 11 2
17 5 13 3 -3 4 -12 1 -19z m2966 -7 c16 -33 11 -47 -10 -30 -12 10 -19 59 -9
59 3 0 11 -13 19 -29z m-383 2 c-1 -10 -7 -29 -15 -43 -13 -22 -14 -23 -15 -5
0 30 11 65 21 65 5 0 9 -8 9 -17z m-2751 -53 c1 -12 -1 -12 -14 1 -10 10 -13
22 -9 34 7 18 8 18 15 -1 4 -10 8 -26 8 -34z m423 15 c10 -41 0 -50 -28 -24
-26 25 -31 45 -11 52 21 9 31 2 39 -28z m2636 17 c2 -7 -3 -12 -12 -12 -9 0
-16 7 -16 16 0 17 22 14 28 -4z m-98 -2 c0 -5 -2 -10 -4 -10 -3 0 -8 5 -11 10
-3 6 -1 10 4 10 6 0 11 -4 11 -10z m-2900 -35 c-7 -9 -15 -13 -17 -11 -7 7 7
26 19 26 6 0 6 -6 -2 -15z m2877 -24 c-6 -17 -16 -27 -24 -24 -10 4 -9 11 3
34 19 37 36 29 21 -10z m114 19 c13 0 11 -26 -5 -65 -14 -33 -17 -34 -41 -23
-14 6 -24 14 -23 17 2 3 10 23 18 44 9 24 19 36 28 32 7 -3 18 -5 23 -5z
m-2938 -53 c15 -30 17 -40 7 -52 -18 -22 -24 -19 -48 27 -16 31 -18 46 -10 55
16 20 29 12 51 -30z m62 5 c-8 -9 -25 20 -18 31 3 5 10 2 15 -7 6 -10 7 -20 3
-24z m2725 -6 c0 -2 -8 -10 -17 -17 -16 -13 -17 -12 -4 4 13 16 21 21 21 13z
m-2705 -27 c11 -17 -1 -21 -15 -4 -8 9 -8 15 -2 15 6 0 14 -5 17 -11z m2730 1
c-3 -5 -11 -10 -16 -10 -6 0 -7 5 -4 10 3 6 11 10 16 10 6 0 7 -4 4 -10z m-30
-29 c7 -12 -44 -53 -57 -45 -5 3 1 17 13 30 24 26 35 29 44 15z m115 -9 c0 -5
-8 -17 -19 -26 -17 -15 -19 -15 -25 -1 -3 9 -2 13 4 10 6 -3 13 1 16 9 6 17
24 22 24 8z m-2870 -17 c0 -9 -6 -12 -15 -9 -8 4 -12 10 -9 15 8 14 24 10 24
-6z m115 -5 c27 -29 15 -32 -20 -4 -20 16 -25 24 -14 24 9 0 24 -9 34 -20z m1
-87 c-3 -4 -16 3 -29 14 -12 11 -32 26 -45 32 -20 10 -21 15 -11 28 12 13 18
10 52 -27 21 -23 36 -44 33 -47z m972 -88 c2 -126 0 -157 -10 -147 -8 8 -53
12 -145 12 -109 0 -133 -3 -133 -14 0 -8 -4 -18 -10 -21 -7 -4 -10 53 -10 165
l0 171 153 -3 152 -3 3 -160z m572 109 c0 -30 -5 -74 -11 -98 -10 -39 -13 -42
-40 -38 l-29 4 0 80 0 79 33 14 c17 8 35 14 40 15 4 0 7 -25 7 -56z m324 34
c10 -38 6 -326 -4 -300 -9 21 -14 22 -140 22 -109 0 -130 -2 -130 -15 0 -8 -4
-15 -10 -15 -6 0 -10 62 -10 165 l0 165 144 0 c141 0 144 0 150 -22z m826 7
c7 -8 8 -15 3 -15 -6 0 -27 -11 -47 -25 -44 -30 -51 -9 -9 30 32 29 36 30 53
10z m-130 -1 c0 -9 -32 -33 -44 -34 -5 0 -1 9 9 20 18 20 35 26 35 14z m-2390
-34 c-20 -13 -40 -13 -40 0 0 6 12 10 28 10 21 0 24 -2 12 -10z m827 -57 c-2
-16 -4 -5 -4 22 0 28 2 40 4 28 2 -13 2 -35 0 -50z m-941 32 c18 -13 17 -14
-13 -12 -33 2 -39 7 -26 20 9 10 17 9 39 -8z m542 -70 c-4 -106 -22 -117 -26
-16 -3 79 1 101 18 101 7 0 10 -29 8 -85z m1987 75 c3 -5 -3 -10 -15 -10 -12
0 -30 -5 -41 -10 -13 -8 -19 -7 -19 0 0 21 64 38 75 20z m-1500 -20 c2 -3 1
-36 -3 -71 l-8 -64 -17 32 c-9 18 -17 52 -17 77 0 39 2 44 20 39 11 -3 22 -9
25 -13z m915 -55 c0 -42 -4 -75 -10 -75 -5 0 -7 7 -4 15 4 8 1 15 -5 15 -12 0
-16 102 -4 113 17 18 23 1 23 -68z m-1085 -245 c4 -6 -23 -10 -74 -10 -47 0
-81 4 -81 10 0 6 31 10 74 10 41 0 78 -4 81 -10z m875 0 c0 -6 -30 -10 -70
-10 -40 0 -70 4 -70 10 0 6 30 10 70 10 40 0 70 -4 70 -10z m-224 -22 c-21
-12 -20 -25 3 -33 27 -8 26 -67 -1 -92 -11 -10 -31 -39 -43 -64 -13 -25 -31
-52 -40 -59 -16 -14 -17 -10 -13 55 6 94 59 215 90 207 18 -4 18 -6 4 -14z
m-510 -194 c-4 -28 0 -48 11 -65 l16 -24 -21 20 c-12 11 -39 53 -61 93 -37 68
-39 75 -27 105 7 17 16 41 20 52 13 34 69 -130 62 -181z m-388 143 c17 -18 21
-31 16 -55 -4 -17 -10 -29 -15 -26 -5 3 -14 -7 -20 -23 -10 -29 -57 -83 -70
-83 -13 0 1 72 28 143 15 37 29 67 33 67 4 0 16 -10 28 -23z m1281 -117 c0
-39 -2 -42 -12 -26 -7 11 -27 36 -44 56 -18 21 -33 41 -33 45 0 4 10 21 22 38
l22 31 22 -50 c13 -27 23 -69 23 -94z m-1106 73 c46 -4 67 -10 67 -19 0 -11
-23 -14 -100 -14 -55 0 -100 2 -100 4 0 2 3 11 6 20 7 18 26 19 127 9z m977
-13 c0 -18 -7 -20 -88 -20 -93 0 -104 3 -95 26 4 11 27 14 94 14 82 0 89 -1
89 -20z m-1230 -200 c-11 -48 -16 -53 -57 -71 -68 -29 -65 -32 -42 62 7 26 17
40 37 47 30 12 65 20 71 16 2 -2 -2 -26 -9 -54z m1444 29 c22 -10 46 -67 46
-108 0 -19 -88 40 -94 63 -3 13 -9 31 -12 40 -7 19 23 22 60 5z"/>
<path d="M2593 4143 c9 -2 23 -2 30 0 6 3 -1 5 -18 5 -16 0 -22 -2 -12 -5z"/>
<path d="M2330 4072 c-47 -15 -64 -67 -36 -107 8 -11 35 -31 61 -44 43 -21 57
-23 159 -19 111 4 154 16 199 56 24 21 23 88 -1 101 -12 6 -74 8 -158 4 -79
-3 -154 -1 -174 4 -19 5 -42 8 -50 5z m49 -39 c12 -23 -4 -53 -29 -53 -25 0
-41 29 -29 52 12 23 45 23 58 1z m317 -9 c7 -29 -6 -47 -31 -42 -44 8 -45 68
-1 68 19 0 27 -7 32 -26z"/>
<path d="M2716 3855 c-11 -8 -17 -17 -14 -20 3 -3 16 3 29 14 27 23 14 28 -15
6z"/>
<path d="M2339 3823 c-13 -16 -12 -17 4 -4 9 7 17 15 17 17 0 8 -8 3 -21 -13z"/>
<path d="M2321 3168 c55 -81 47 -78 210 -78 l148 0 29 43 c16 23 32 49 37 57
18 31 -24 -11 -46 -46 l-21 -34 -148 0 -149 0 -32 45 c-37 51 -62 62 -28 13z"/>
<path d="M2044 3168 c-9 -13 21 -42 35 -34 6 4 11 13 11 20 0 17 -38 28 -46
14z"/>
<path d="M2946 3164 c-4 -10 -2 -22 3 -27 14 -14 43 0 39 20 -4 24 -34 28 -42
7z"/>
<path d="M3036 3537 c3 -10 9 -15 12 -12 3 3 0 11 -7 18 -10 9 -11 8 -5 -6z"/>
<path d="M1415 3356 c-112 -48 -112 -48 -114 -159 -1 -60 2 -71 23 -90 30 -27
132 -84 122 -68 -4 6 -32 26 -63 43 -30 17 -59 41 -64 52 -6 13 -7 50 -2 96
l8 74 99 43 c54 23 103 40 109 36 6 -3 7 -1 3 5 -10 16 -7 17 -121 -32z"/>
<path d="M1572 3303 c4 -25 47 -31 44 -6 -2 10 -13 19 -25 21 -18 3 -22 -1
-19 -15z"/>
<path d="M1582 3233 c2 -10 10 -18 18 -18 22 0 18 29 -3 33 -14 3 -18 -1 -15
-15z"/>
<path d="M1261 2955 c-18 -64 -31 -121 -29 -127 2 -6 19 44 36 112 18 67 31
124 29 127 -3 2 -19 -49 -36 -112z"/>
<path d="M1440 2994 c0 -8 5 -12 10 -9 6 3 10 10 10 16 0 5 -4 9 -10 9 -5 0
-10 -7 -10 -16z"/>
<path d="M1426 2954 c-12 -31 -7 -45 16 -42 29 4 35 34 10 47 -16 8 -21 7 -26
-5z"/>
<path d="M3392 3388 c5 -15 28 -18 29 -3 0 6 -7 12 -17 13 -10 3 -15 -1 -12
-10z"/>
<path d="M3381 3247 c-14 -17 3 -41 23 -34 9 4 16 13 16 21 0 19 -26 28 -39
13z"/>
<path d="M3710 3025 c0 -21 54 -195 61 -195 4 0 -7 44 -23 98 -29 92 -38 116
-38 97z"/>
<path d="M3505 2831 c-3 -5 -1 -12 5 -16 12 -7 30 2 30 16 0 12 -27 12 -35 0z"/>
<path d="M3087 2781 c-4 -18 -7 -43 -6 -55 1 -11 5 -1 10 24 5 25 7 49 6 55
-2 5 -7 -5 -10 -24z"/>
<path d="M1480 2671 c-12 -29 -8 -51 10 -51 11 0 52 71 45 78 -3 3 -5 1 -5 -4
0 -5 -10 -20 -21 -34 -20 -24 -20 -24 -9 -1 8 14 8 27 2 33 -6 6 -14 -2 -22
-21z"/>
<path d="M1342 2488 c-17 -17 -15 -23 13 -36 22 -10 25 -9 25 7 0 26 -23 44
-38 29z"/>
<path d="M4014 2245 c16 -60 30 -71 22 -16 -7 48 -13 61 -25 61 -4 0 -3 -20 3
-45z"/>
<path d="M1005 2298 c-3 -24 -9 -51 -11 -60 -3 -10 -2 -18 3 -18 8 0 43 88 43
109 0 6 -6 11 -14 11 -9 0 -17 -16 -21 -42z"/>
<path d="M1066 2203 c-11 -37 -36 -197 -35 -227 1 -17 7 10 15 59 7 50 18 110
24 134 11 42 7 71 -4 34z"/>
<path d="M1361 2077 c-21 -55 -52 -169 -48 -180 2 -6 11 16 20 49 9 32 24 80
32 107 14 48 12 66 -4 24z"/>
<path d="M2554 2135 c-10 -8 -14 -15 -8 -15 5 0 19 7 30 15 10 8 14 15 8 15
-5 0 -19 -7 -30 -15z"/>
<path d="M2445 1700 c3 -5 37 -10 75 -10 38 0 72 5 75 10 4 6 -23 10 -75 10
-52 0 -79 -4 -75 -10z"/>
<path d="M1930 1150 c20 -13 223 -13 215 0 -4 6 -54 10 -118 10 -76 0 -107 -3
-97 -10z"/>
<path d="M2860 1150 c-10 -7 17 -9 85 -9 67 1 90 4 70 9 -44 11 -138 11 -155
0z"/>
<path d="M1900 500 c0 -6 47 -10 120 -10 73 0 120 4 120 10 0 6 -47 10 -120
10 -73 0 -120 -4 -120 -10z"/>
<path d="M2860 500 c0 -6 48 -10 125 -10 77 0 125 4 125 10 0 6 -48 10 -125
10 -77 0 -125 -4 -125 -10z"/>
<path d="M2265 320 c-63 -5 -67 -7 -40 -15 42 -14 505 -13 528 1 35 20 -304
30 -488 14z"/>
</g>
</svg>